<svg width="27" height="25" viewBox="0 0 27 25" fill="none" xmlns="http://www.w3.org/2000/svg">
<path d="M21.6908 12.1246C20.9222 11.3144 20.5697 10.6092 20.5583 9.40573L20.5544 8.99651C20.5396 7.42818 20.1376 6.42141 19.275 5.419C17.9454 3.86215 15.7232 2.93729 13.5564 2.95781L13.4643 2.95868C11.3431 2.97877 9.20772 3.90147 7.88447 5.41973C6.99462 6.45901 6.5667 7.51708 6.58196 9.12884L6.58584 9.53806C6.59724 10.7416 6.28095 11.453 5.50503 12.2779C4.93411 12.8856 4.75717 13.6614 4.76511 14.4991C4.77305 15.3378 5.07975 16.1293 5.6863 16.7693C6.47729 17.5359 7.58863 18.0196 8.71991 18.0947C10.3582 18.251 11.9955 18.3002 13.656 18.2845C15.3155 18.2688 16.9512 18.1452 18.5877 18.0013C19.7163 17.9047 20.8183 17.4001 21.5946 16.6186C22.1879 15.9673 22.4806 15.1701 22.4726 14.3314C22.4647 13.4937 22.2731 12.7214 21.6908 12.1246Z" fill="white"/>
<path opacity="0.4" d="M15.759 19.4482C15.2373 19.3508 12.0643 19.3809 11.5446 19.4881C11.1003 19.5869 10.621 19.8115 10.6256 20.2941C10.6558 20.7542 10.9526 21.1578 11.3609 21.4116L11.3599 21.4126C11.8883 21.784 12.5065 22.0175 13.1523 22.0973C13.4964 22.1375 13.8463 22.1322 14.202 22.0874C14.8451 21.9954 15.4588 21.7502 15.9801 21.3688L15.979 21.3679C16.3824 21.1063 16.6715 20.6972 16.693 20.2366C16.6885 19.7541 16.205 19.5386 15.759 19.4482Z" fill="white"/>
</svg>
