<svg width="203" height="153" viewBox="0 0 203 153" fill="none" xmlns="http://www.w3.org/2000/svg">
<g filter="url(#filter0_d_1_74)">
<path d="M12.1765 97.2292C33.4855 48.0601 90.5555 16.1308 140.899 5.52219C154.445 2.67332 183.723 -4.71637 195.151 8.4144C205.671 20.5075 188.716 38.2349 181.191 46.4214C147.839 82.7131 98.9995 115.129 54.2515 135.039C42.9995 140.044 22.7765 149.869 11.1995 139.765C-0.66951 129.391 7.28149 108.517 12.1765 97.2292Z" fill="#121826"/>
<path d="M12.1765 97.2292C33.4855 48.0601 90.5555 16.1308 140.899 5.52219C154.445 2.67332 183.723 -4.71637 195.151 8.4144C205.671 20.5075 188.716 38.2349 181.191 46.4214C147.839 82.7131 98.9995 115.129 54.2515 135.039C42.9995 140.044 22.7765 149.869 11.1995 139.765C-0.66951 129.391 7.28149 108.517 12.1765 97.2292Z" stroke="#5BE7C3" stroke-width="0.738542" stroke-miterlimit="10"/>
</g>
<defs>
<filter id="filter0_d_1_74" x="0.629791" y="0.495514" width="202.24" height="152.028" filterUnits="userSpaceOnUse" color-interpolation-filters="sRGB">
<feFlood flood-opacity="0" result="BackgroundImageFix"/>
<feColorMatrix in="SourceAlpha" type="matrix" values="0 0 0 0 0 0 0 0 0 0 0 0 0 0 0 0 0 0 127 0" result="hardAlpha"/>
<feOffset dy="4"/>
<feGaussianBlur stdDeviation="2"/>
<feComposite in2="hardAlpha" operator="out"/>
<feColorMatrix type="matrix" values="0 0 0 0 0.270588 0 0 0 0 0.266667 0 0 0 0 0.862745 0 0 0 1 0"/>
<feBlend mode="normal" in2="BackgroundImageFix" result="effect1_dropShadow_1_74"/>
<feBlend mode="normal" in="SourceGraphic" in2="effect1_dropShadow_1_74" result="shape"/>
</filter>
</defs>
</svg>
