<svg width="162" height="177" viewBox="0 0 162 177" fill="none" xmlns="http://www.w3.org/2000/svg">
<g filter="url(#filter0_d_1_84)">
<path d="M5.13692 83.1926C15.1029 63.6473 32.3769 47.1126 48.3049 32.364C60.6049 20.9786 78.7339 1.61748 96.4679 1.14656C115.977 0.623123 132.511 16.8745 140.268 33.5317C147.912 49.9581 155.968 70.5569 157.113 88.5794C159.601 127.832 109.001 171.801 71.0009 168.222C34.9789 164.829 -14.7331 122.136 5.13692 83.1926Z" fill="#121826"/>
<path d="M5.13692 83.1926C15.1029 63.6473 32.3769 47.1126 48.3049 32.364C60.6049 20.9786 78.7339 1.61748 96.4679 1.14656C115.977 0.623123 132.511 16.8745 140.268 33.5317C147.912 49.9581 155.968 70.5569 157.113 88.5794C159.601 127.832 109.001 171.801 71.0009 168.222C34.9789 164.829 -14.7331 122.136 5.13692 83.1926Z" stroke="#5ACEF2" stroke-width="0.738542" stroke-miterlimit="10"/>
</g>
<defs>
<filter id="filter0_d_1_84" x="-3.76917" y="0.764954" width="165.34" height="176.032" filterUnits="userSpaceOnUse" color-interpolation-filters="sRGB">
<feFlood flood-opacity="0" result="BackgroundImageFix"/>
<feColorMatrix in="SourceAlpha" type="matrix" values="0 0 0 0 0 0 0 0 0 0 0 0 0 0 0 0 0 0 127 0" result="hardAlpha"/>
<feOffset dy="4"/>
<feGaussianBlur stdDeviation="2"/>
<feComposite in2="hardAlpha" operator="out"/>
<feColorMatrix type="matrix" values="0 0 0 0 0.270588 0 0 0 0 0.266667 0 0 0 0 0.862745 0 0 0 1 0"/>
<feBlend mode="normal" in2="BackgroundImageFix" result="effect1_dropShadow_1_84"/>
<feBlend mode="normal" in="SourceGraphic" in2="effect1_dropShadow_1_84" result="shape"/>
</filter>
</defs>
</svg>
