<svg width="568" height="490" viewBox="0 0 568 490" fill="none" xmlns="http://www.w3.org/2000/svg">
<g filter="url(#filter0_d_1_68)">
<path d="M4.56042 300.664C5.16742 257.395 15.4014 216.501 43.4135 182.783C55.3914 168.358 69.6934 156.477 82.8734 143.259C93.4854 132.602 103.514 122.701 115.716 113.92C144.661 93.1268 168.186 66.2209 198.946 47.705C240.009 22.9504 287.046 9.26962 333.717 3.79944C356.507 1.12646 380.049 0.191254 403.106 3.21182C422.906 5.80481 441.874 14.9073 459.467 24.2207C493.949 42.4641 527.429 68.3955 549.818 101.197C599.179 173.519 501.859 226.101 451.909 256.892C428.937 271.057 393.836 287.462 384.427 315.52C377.701 335.563 373.603 355.944 364.94 375.372C341.669 427.54 294.433 488.899 231.485 480.73C204.549 477.24 179.999 463.06 154.854 453.545C128.962 443.743 102.239 438.279 75.3274 432.282C50.1765 426.682 30.1274 418.711 13.8854 397.343C6.12146 387.139 6.80743 374.922 6.11444 362.404C4.98541 341.841 4.28741 321.16 4.56042 300.664Z" fill="#121826"/>
<path d="M4.56042 300.664C5.16742 257.395 15.4014 216.501 43.4135 182.783C55.3914 168.358 69.6934 156.477 82.8734 143.259C93.4854 132.602 103.514 122.701 115.716 113.92C144.661 93.1268 168.186 66.2209 198.946 47.705C240.009 22.9504 287.046 9.26962 333.717 3.79944C356.507 1.12646 380.049 0.191254 403.106 3.21182C422.906 5.80481 441.874 14.9073 459.467 24.2207C493.949 42.4641 527.429 68.3955 549.818 101.197C599.179 173.519 501.859 226.101 451.909 256.892C428.937 271.057 393.836 287.462 384.427 315.52C377.701 335.563 373.603 355.944 364.94 375.372C341.669 427.54 294.433 488.899 231.485 480.73C204.549 477.24 179.999 463.06 154.854 453.545C128.962 443.743 102.239 438.279 75.3274 432.282C50.1765 426.682 30.1274 418.711 13.8854 397.343C6.12146 387.139 6.80743 374.922 6.11444 362.404C4.98541 341.841 4.28741 321.16 4.56042 300.664Z" stroke="#5BE7C3" stroke-width="0.738542" stroke-miterlimit="10"/>
</g>
<defs>
<filter id="filter0_d_1_68" x="0.131989" y="0.963735" width="567.64" height="488.872" filterUnits="userSpaceOnUse" color-interpolation-filters="sRGB">
<feFlood flood-opacity="0" result="BackgroundImageFix"/>
<feColorMatrix in="SourceAlpha" type="matrix" values="0 0 0 0 0 0 0 0 0 0 0 0 0 0 0 0 0 0 127 0" result="hardAlpha"/>
<feOffset dy="4"/>
<feGaussianBlur stdDeviation="2"/>
<feComposite in2="hardAlpha" operator="out"/>
<feColorMatrix type="matrix" values="0 0 0 0 0.270588 0 0 0 0 0.266667 0 0 0 0 0.862745 0 0 0 1 0"/>
<feBlend mode="normal" in2="BackgroundImageFix" result="effect1_dropShadow_1_68"/>
<feBlend mode="normal" in="SourceGraphic" in2="effect1_dropShadow_1_68" result="shape"/>
</filter>
</defs>
</svg>
