<svg width="628" height="552" viewBox="0 0 628 552" fill="none" xmlns="http://www.w3.org/2000/svg">
<g filter="url(#filter0_d_1_67)">
<path d="M8.98352 309.387C1.8775 263.834 1.0835 216.335 34.1035 180.433C49.5125 163.68 68.9905 151.784 88.6865 141.003C103.179 133.07 118.143 126.379 128.966 113.374C138.993 101.332 146.616 87.3507 156.297 74.9942C168.583 59.0677 183.863 44.8926 201.552 33.0123C244.674 4.41284 297.132 -8.96301 347.318 -13.603C371.612 -15.8585 397.965 -17.032 422.096 -10.8842C445.396 -4.95312 468.443 4.42529 489.87 15.3615C535.423 38.585 574.899 72.5963 603.519 115.598C623.143 145.093 633.753 173.775 608.341 203.697C579.692 237.424 534.772 256.033 497.747 277.923C472.354 292.937 443.894 307.654 439.148 339.558C435.37 364.944 432.303 389.041 422.531 413.037C407.99 448.43 386.599 480.493 359.647 507.322C334.995 531.764 303.807 552.505 268.547 539.45C240.609 529.089 218.932 505.877 194.522 489.282C167.322 470.747 137.431 460.527 105.958 452.311C77.6725 444.893 51.0405 433.505 32.7575 409.317C28.7662 404.26 25.237 398.96 22.1995 393.461C18.5185 386.406 18.7995 379.412 18.0815 371.504C16.1995 350.633 12.1995 330.004 8.98352 309.387Z" fill="#121826"/>
<path d="M8.98352 309.387C1.8775 263.834 1.0835 216.335 34.1035 180.433C49.5125 163.68 68.9905 151.784 88.6865 141.003C103.179 133.07 118.143 126.379 128.966 113.374C138.993 101.332 146.616 87.3507 156.297 74.9942C168.583 59.0677 183.863 44.8926 201.552 33.0123C244.674 4.41284 297.132 -8.96301 347.318 -13.603C371.612 -15.8585 397.965 -17.032 422.096 -10.8842C445.396 -4.95312 468.443 4.42529 489.87 15.3615C535.423 38.585 574.899 72.5963 603.519 115.598C623.143 145.093 633.753 173.775 608.341 203.697C579.692 237.424 534.772 256.033 497.747 277.923C472.354 292.937 443.894 307.654 439.148 339.558C435.37 364.944 432.303 389.041 422.531 413.037C407.99 448.43 386.599 480.493 359.647 507.322C334.995 531.764 303.807 552.505 268.547 539.45C240.609 529.089 218.932 505.877 194.522 489.282C167.322 470.747 137.431 460.527 105.958 452.311C77.6725 444.893 51.0405 433.505 32.7575 409.317C28.7662 404.26 25.237 398.96 22.1995 393.461C18.5185 386.406 18.7995 379.412 18.0815 371.504C16.1995 350.633 12.1995 330.004 8.98352 309.387Z" stroke="#F1B170" stroke-width="0.738542" stroke-miterlimit="10"/>
</g>
<defs>
<filter id="filter0_d_1_67" x="0.629608" y="-15.7914" width="627.039" height="567.645" filterUnits="userSpaceOnUse" color-interpolation-filters="sRGB">
<feFlood flood-opacity="0" result="BackgroundImageFix"/>
<feColorMatrix in="SourceAlpha" type="matrix" values="0 0 0 0 0 0 0 0 0 0 0 0 0 0 0 0 0 0 127 0" result="hardAlpha"/>
<feOffset dy="4"/>
<feGaussianBlur stdDeviation="2"/>
<feComposite in2="hardAlpha" operator="out"/>
<feColorMatrix type="matrix" values="0 0 0 0 0.270588 0 0 0 0 0.266667 0 0 0 0 0.862745 0 0 0 1 0"/>
<feBlend mode="normal" in2="BackgroundImageFix" result="effect1_dropShadow_1_67"/>
<feBlend mode="normal" in="SourceGraphic" in2="effect1_dropShadow_1_67" result="shape"/>
</filter>
</defs>
</svg>
