<svg width="520" height="414" viewBox="0 0 520 414" fill="none" xmlns="http://www.w3.org/2000/svg">
<g filter="url(#filter0_d_1_69)">
<path d="M10.6696 272.122C20.7826 206.812 58.3416 135.513 113.57 97.5835C178.532 52.9669 248.91 15.3967 326.525 4.59634C362.51 -0.412079 401.925 -2.87589 435.883 13.5013C461.725 25.957 491.741 44.5754 505.963 70.7619C540.755 134.802 463.363 185.783 419.272 215.417C395.533 231.367 365.316 246.911 347.424 270.204C337.044 283.706 331.744 301.575 323.363 316.407C297.963 361.357 256.163 397.612 204.08 404.096C180.001 407.091 155.746 403.386 131.849 400.44C107.387 397.426 82.6205 395.79 58.3105 391.585C38.9106 388.226 16.0356 382.539 8.88855 361.413C-0.124451 334.788 6.54254 298.792 10.6696 272.122Z" fill="#121826"/>
<path d="M10.6696 272.122C20.7826 206.812 58.3416 135.513 113.57 97.5835C178.532 52.9669 248.91 15.3967 326.525 4.59634C362.51 -0.412079 401.925 -2.87589 435.883 13.5013C461.725 25.957 491.741 44.5754 505.963 70.7619C540.755 134.802 463.363 185.783 419.272 215.417C395.533 231.367 365.316 246.911 347.424 270.204C337.044 283.706 331.744 301.575 323.363 316.407C297.963 361.357 256.163 397.612 204.08 404.096C180.001 407.091 155.746 403.386 131.849 400.44C107.387 397.426 82.6205 395.79 58.3105 391.585C38.9106 388.226 16.0356 382.539 8.88855 361.413C-0.124451 334.788 6.54254 298.792 10.6696 272.122Z" stroke="#5ACEF2" stroke-width="0.738542" stroke-miterlimit="10"/>
</g>
<defs>
<filter id="filter0_d_1_69" x="0.0309448" y="0.470354" width="519.039" height="413.103" filterUnits="userSpaceOnUse" color-interpolation-filters="sRGB">
<feFlood flood-opacity="0" result="BackgroundImageFix"/>
<feColorMatrix in="SourceAlpha" type="matrix" values="0 0 0 0 0 0 0 0 0 0 0 0 0 0 0 0 0 0 127 0" result="hardAlpha"/>
<feOffset dy="4"/>
<feGaussianBlur stdDeviation="2"/>
<feComposite in2="hardAlpha" operator="out"/>
<feColorMatrix type="matrix" values="0 0 0 0 0.270588 0 0 0 0 0.266667 0 0 0 0 0.862745 0 0 0 1 0"/>
<feBlend mode="normal" in2="BackgroundImageFix" result="effect1_dropShadow_1_69"/>
<feBlend mode="normal" in="SourceGraphic" in2="effect1_dropShadow_1_69" result="shape"/>
</filter>
</defs>
</svg>
