<svg width="1163" height="858" viewBox="0 0 1163 858" fill="none" xmlns="http://www.w3.org/2000/svg">
<g filter="url(#filter0_d_1_61)">
<path d="M236.082 290.665C197.282 245.801 143.731 212.433 97.5128 174.964C74.3129 156.152 50.9728 136.827 30.9648 114.419C20.5569 102.768 7.56482 88.0325 5.55579 71.7912C0.196777 28.3415 80.6638 34.2167 104.749 32.5673C151.313 29.3675 203.917 26.9387 246.162 4.76624C271.972 -8.7879 284.682 -31.0353 279.862 -60.2757C277.723 -73.2498 274.394 -84.2709 279.862 -97.01C285.403 -109.916 296.947 -119.022 308.637 -125.849C342.23 -145.482 383.976 -151.759 421.798 -156.438C466.062 -161.88 510.823 -164.01 555.543 -162.801C594.671 -161.757 633.61 -173.502 671.814 -181.242C722.425 -191.494 773.953 -200.443 825.743 -199.091C866.643 -198.015 907.869 -189.57 942.835 -167.125C978.366 -144.267 999.728 -110.053 1018.99 -73.1339C1048.1 -17.3219 1084.39 57.4685 1148.26 78.6649C1157.55 81.7538 1166.21 82.0939 1175.79 82.6315C1180.44 82.8907 1186.45 82.9716 1188.76 87.9075C1194.31 99.7964 1173.78 122.841 1168.05 130.872C1149.76 156.511 1129.94 180.994 1111.19 206.293C1093.69 229.911 1074.64 254.524 1063.77 282.202C1046.47 326.282 1101.77 352.056 1100.22 394.06C1099.25 420.137 1074.7 438.838 1055.26 451.775C1031.32 467.683 996.855 478.142 984.874 507.173C975.949 528.796 989.953 541.38 1000.74 557.789C1019.01 585.59 1020.26 623.275 1018.36 655.456C1015.79 698.942 1005.77 743.072 988.721 783.044C980.993 801.164 971.527 820.013 957.589 834.086C944.531 847.275 932.173 850.651 914.724 847.956C861.301 839.677 807.371 816.602 756.147 795.993C691.787 770.095 628.314 741.503 566.736 709.334C524.747 687.396 481.809 664.186 444.954 633.876C435.348 625.975 425.512 617.387 418.488 606.964C413.178 599.13 410.924 592.663 401.974 588.189C375.447 574.937 338.549 578.403 310.127 579.781C264.681 581.974 219.453 587.812 174.286 593.07C147.929 596.159 98.2788 605.877 77.2318 582.568C59.0658 562.44 80.9868 528.121 92.1838 510.388C120.509 465.547 156.945 426.195 190.751 385.673C206.244 367.102 222.345 348.389 235.14 327.746C238.409 322.483 243.646 315.507 244.545 309.113C245.554 301.785 240.845 296.194 236.082 290.665Z" fill="#121826"/>
<path d="M236.082 290.665C197.282 245.801 143.731 212.433 97.5128 174.964C74.3129 156.152 50.9728 136.827 30.9648 114.419C20.5569 102.768 7.56482 88.0325 5.55579 71.7912C0.196777 28.3415 80.6638 34.2167 104.749 32.5673C151.313 29.3675 203.917 26.9387 246.162 4.76624C271.972 -8.7879 284.682 -31.0353 279.862 -60.2757C277.723 -73.2498 274.394 -84.2709 279.862 -97.01C285.403 -109.916 296.947 -119.022 308.637 -125.849C342.23 -145.482 383.976 -151.759 421.798 -156.438C466.062 -161.88 510.823 -164.01 555.543 -162.801C594.671 -161.757 633.61 -173.502 671.814 -181.242C722.425 -191.494 773.953 -200.443 825.743 -199.091C866.643 -198.015 907.869 -189.57 942.835 -167.125C978.366 -144.267 999.728 -110.053 1018.99 -73.1339C1048.1 -17.3219 1084.39 57.4685 1148.26 78.6649C1157.55 81.7538 1166.21 82.0939 1175.79 82.6315C1180.44 82.8907 1186.45 82.9716 1188.76 87.9075C1194.31 99.7964 1173.78 122.841 1168.05 130.872C1149.76 156.511 1129.94 180.994 1111.19 206.293C1093.69 229.911 1074.64 254.524 1063.77 282.202C1046.47 326.282 1101.77 352.056 1100.22 394.06C1099.25 420.137 1074.7 438.838 1055.26 451.775C1031.32 467.683 996.855 478.142 984.874 507.173C975.949 528.796 989.953 541.38 1000.74 557.789C1019.01 585.59 1020.26 623.275 1018.36 655.456C1015.79 698.942 1005.77 743.072 988.721 783.044C980.993 801.164 971.527 820.013 957.589 834.086C944.531 847.275 932.173 850.651 914.724 847.956C861.301 839.677 807.371 816.602 756.147 795.993C691.787 770.095 628.314 741.503 566.736 709.334C524.747 687.396 481.809 664.186 444.954 633.876C435.348 625.975 425.512 617.387 418.488 606.964C413.178 599.13 410.924 592.663 401.974 588.189C375.447 574.937 338.549 578.403 310.127 579.781C264.681 581.974 219.453 587.812 174.286 593.07C147.929 596.159 98.2788 605.877 77.2318 582.568C59.0658 562.44 80.9868 528.121 92.1838 510.388C120.509 465.547 156.945 426.195 190.751 385.673C206.244 367.102 222.345 348.389 235.14 327.746C238.409 322.483 243.646 315.507 244.545 309.113C245.554 301.785 240.845 296.194 236.082 290.665Z" stroke="#5BE7C3" stroke-width="0.738542" stroke-miterlimit="10"/>
</g>
<defs>
<filter id="filter0_d_1_61" x="0.931091" y="-199.596" width="1193.14" height="1056.78" filterUnits="userSpaceOnUse" color-interpolation-filters="sRGB">
<feFlood flood-opacity="0" result="BackgroundImageFix"/>
<feColorMatrix in="SourceAlpha" type="matrix" values="0 0 0 0 0 0 0 0 0 0 0 0 0 0 0 0 0 0 127 0" result="hardAlpha"/>
<feOffset dy="4"/>
<feGaussianBlur stdDeviation="2"/>
<feComposite in2="hardAlpha" operator="out"/>
<feColorMatrix type="matrix" values="0 0 0 0 0.270588 0 0 0 0 0.266667 0 0 0 0 0.862745 0 0 0 1 0"/>
<feBlend mode="normal" in2="BackgroundImageFix" result="effect1_dropShadow_1_61"/>
<feBlend mode="normal" in="SourceGraphic" in2="effect1_dropShadow_1_61" result="shape"/>
</filter>
</defs>
</svg>
