<svg width="678" height="59" viewBox="0 0 678 59" fill="none" xmlns="http://www.w3.org/2000/svg">
<g filter="url(#filter0_d_1_93)">
<path d="M544.112 236.939C471.322 259.171 390.33 271.83 313.387 265.955C286.616 263.908 259.682 259.153 234.745 248.708C223.4 243.969 214.882 238.689 202.45 238.405C173.603 237.75 144.666 240.044 115.825 240.595C95.1857 240.991 74.4427 241.132 53.8517 239.444C40.0837 238.319 21.4656 236.971 10.1866 228.381C-6.20337 215.87 23.3867 173.342 29.4057 161.593C39.3857 142.106 49.2867 120.444 45.3287 97.8966C44.1147 91.0012 41.9656 84.91 41.6866 77.8787C41.4196 71.8368 42.1667 66.2591 40.0597 60.483C37.4597 53.3217 25.8727 42.2088 29.8597 35.6168C32.5737 31.1159 40.6227 30.9042 45.9767 29.4639C54.7591 27.0908 63.248 24.0206 71.3267 20.2956C79.9467 16.3132 87.2857 10.1595 96.2157 6.86975C110.716 1.53543 126.938 1.03537 142.175 1.06204C202.975 1.16205 264.537 13.3626 323.79 26.1208C354.646 32.7629 385.672 39.8434 415.66 49.9169C424.766 52.9783 435.085 56.0514 443.092 61.7041C448.092 65.2231 451.475 69.6322 457.151 72.2785C505.636 94.8752 561.69 103.267 613.161 119.586C626.561 123.837 700.806 145.3 661.985 165.491C638.401 177.76 613.485 183.338 591.963 200.121C585.407 205.223 581.036 209.447 578.475 217.233C576.787 222.415 580.849 219.787 575.175 225.204C568.3 231.716 552.593 234.349 544.112 236.939Z" fill="#121826"/>
<path d="M544.112 236.939C471.322 259.171 390.33 271.83 313.387 265.955C286.616 263.908 259.682 259.153 234.745 248.708C223.4 243.969 214.882 238.689 202.45 238.405C173.603 237.75 144.666 240.044 115.825 240.595C95.1857 240.991 74.4427 241.132 53.8517 239.444C40.0837 238.319 21.4656 236.971 10.1866 228.381C-6.20337 215.87 23.3867 173.342 29.4057 161.593C39.3857 142.106 49.2867 120.444 45.3287 97.8966C44.1147 91.0012 41.9656 84.91 41.6866 77.8787C41.4196 71.8368 42.1667 66.2591 40.0597 60.483C37.4597 53.3217 25.8727 42.2088 29.8597 35.6168C32.5737 31.1159 40.6227 30.9042 45.9767 29.4639C54.7591 27.0908 63.248 24.0206 71.3267 20.2956C79.9467 16.3132 87.2857 10.1595 96.2157 6.86975C110.716 1.53543 126.938 1.03537 142.175 1.06204C202.975 1.16205 264.537 13.3626 323.79 26.1208C354.646 32.7629 385.672 39.8434 415.66 49.9169C424.766 52.9783 435.085 56.0514 443.092 61.7041C448.092 65.2231 451.475 69.6322 457.151 72.2785C505.636 94.8752 561.69 103.267 613.161 119.586C626.561 123.837 700.806 145.3 661.985 165.491C638.401 177.76 613.485 183.338 591.963 200.121C585.407 205.223 581.036 209.447 578.475 217.233C576.787 222.415 580.849 219.787 575.175 225.204C568.3 231.716 552.593 234.349 544.112 236.939Z" stroke="#F1B170" stroke-width="0.738542" stroke-miterlimit="10"/>
</g>
<defs>
<filter id="filter0_d_1_93" x="0.930359" y="0.691772" width="676.542" height="275.067" filterUnits="userSpaceOnUse" color-interpolation-filters="sRGB">
<feFlood flood-opacity="0" result="BackgroundImageFix"/>
<feColorMatrix in="SourceAlpha" type="matrix" values="0 0 0 0 0 0 0 0 0 0 0 0 0 0 0 0 0 0 127 0" result="hardAlpha"/>
<feOffset dy="4"/>
<feGaussianBlur stdDeviation="2"/>
<feComposite in2="hardAlpha" operator="out"/>
<feColorMatrix type="matrix" values="0 0 0 0 0.270588 0 0 0 0 0.266667 0 0 0 0 0.862745 0 0 0 1 0"/>
<feBlend mode="normal" in2="BackgroundImageFix" result="effect1_dropShadow_1_93"/>
<feBlend mode="normal" in="SourceGraphic" in2="effect1_dropShadow_1_93" result="shape"/>
</filter>
</defs>
</svg>
