<svg width="565" height="30" viewBox="0 0 565 30" fill="none" xmlns="http://www.w3.org/2000/svg">
<g filter="url(#filter0_d_1_94)">
<path d="M426.427 194.795C341.205 212.939 250.956 213.798 164.39 197.712C142.567 193.661 119.856 194.628 97.765 193.6C76.301 192.613 38.1411 194.666 22.551 177.877C11.251 165.708 23.513 139.839 27.751 126.225C33.156 108.88 37.88 90.9614 29.005 74.1167C23.805 64.2515 16.684 54.8631 11.105 45.0871C8.43896 40.4196 2.948 33.2674 5.237 28.8458C9.02301 21.5511 26.737 18.4805 35.337 15.0399C62.809 4.04619 91.9 1.24066 121.27 1.31902C175.519 1.46237 230.049 9.0096 283.263 19.2448C307.746 23.9557 332.57 28.9808 356.182 37.169C369.543 41.7998 379.399 50.734 392.158 56.0308C433.241 73.0981 477.379 82.2173 519.168 97.8235C531.268 102.344 576.443 117.388 553.683 135.127C531.651 152.304 499.51 150.262 476.6 166.417C474.007 168.267 470.8 170.48 469.3 173.471C468.411 175.259 469.976 178.663 469.3 179.68C462.256 190.736 437.244 192.493 426.427 194.795Z" fill="#121826"/>
<path d="M426.427 194.795C341.205 212.939 250.956 213.798 164.39 197.712C142.567 193.661 119.856 194.628 97.765 193.6C76.301 192.613 38.1411 194.666 22.551 177.877C11.251 165.708 23.513 139.839 27.751 126.225C33.156 108.88 37.88 90.9614 29.005 74.1167C23.805 64.2515 16.684 54.8631 11.105 45.0871C8.43896 40.4196 2.948 33.2674 5.237 28.8458C9.02301 21.5511 26.737 18.4805 35.337 15.0399C62.809 4.04619 91.9 1.24066 121.27 1.31902C175.519 1.46237 230.049 9.0096 283.263 19.2448C307.746 23.9557 332.57 28.9808 356.182 37.169C369.543 41.7998 379.399 50.734 392.158 56.0308C433.241 73.0981 477.379 82.2173 519.168 97.8235C531.268 102.344 576.443 117.388 553.683 135.127C531.651 152.304 499.51 150.262 476.6 166.417C474.007 168.267 470.8 170.48 469.3 173.471C468.411 175.259 469.976 178.663 469.3 179.68C462.256 190.736 437.244 192.493 426.427 194.795Z" stroke="#5ACEF2" stroke-width="0.738542" stroke-miterlimit="10"/>
</g>
<defs>
<filter id="filter0_d_1_94" x="0.32251" y="0.948181" width="564.044" height="216.55" filterUnits="userSpaceOnUse" color-interpolation-filters="sRGB">
<feFlood flood-opacity="0" result="BackgroundImageFix"/>
<feColorMatrix in="SourceAlpha" type="matrix" values="0 0 0 0 0 0 0 0 0 0 0 0 0 0 0 0 0 0 127 0" result="hardAlpha"/>
<feOffset dy="4"/>
<feGaussianBlur stdDeviation="2"/>
<feComposite in2="hardAlpha" operator="out"/>
<feColorMatrix type="matrix" values="0 0 0 0 0.270588 0 0 0 0 0.266667 0 0 0 0 0.862745 0 0 0 1 0"/>
<feBlend mode="normal" in2="BackgroundImageFix" result="effect1_dropShadow_1_94"/>
<feBlend mode="normal" in="SourceGraphic" in2="effect1_dropShadow_1_94" result="shape"/>
</filter>
</defs>
</svg>
