<svg width="865" height="677" viewBox="0 0 865 677" fill="none" xmlns="http://www.w3.org/2000/svg">
<g filter="url(#filter0_d_1_64)">
<path d="M87.2992 304.723C65.4911 273.09 39.3932 243.205 20.6812 209.038C8.54218 186.912 -3.37781 157.349 12.2812 133.941C29.9552 107.519 68.9272 101.363 97.5632 97.9967C127.063 94.5311 162.288 91.6155 186.402 71.5835C194.074 65.2023 200.402 56.5982 201.576 46.2947C202.711 36.4112 199.506 26.5277 200.568 16.4658C202.947 -6.13 216.415 -24.7476 233.78 -38.251C285.147 -78.2042 361.599 -87.0842 423.573 -88.1285C454.594 -88.6478 486.519 -85.9231 517.741 -83.9711C558.255 -81.4381 598.829 -76.003 637.467 -62.9014C719.617 -35.0546 774.679 26.7036 813.135 103.553C825.237 127.742 834.499 153.915 853.466 173.354C863.244 183.392 861.107 190.601 851.111 199.755C835.482 214.061 816.418 224.994 799.072 236.935C774.399 253.916 749.199 271.15 727.379 291.491C712.339 305.513 701.663 319.022 698.422 340.049C696.11 355.041 696.65 370.317 695.26 385.402C692.614 414.057 683.552 442.496 667.51 466.266C654.764 485.103 639.591 502.229 623.91 518.555C603.441 539.662 585.643 562.476 570.799 586.632C550.272 620.026 521.43 681.623 473.081 665.322C419.749 647.334 369.767 601.63 335.554 557.347C324.064 542.478 314.633 524.244 299.137 513.279C275.937 496.891 252.402 497.467 224.81 497.534C183.501 497.627 93.6102 506.75 92.6422 443.793C92.2602 418.85 102.869 395.266 107.949 371.274C113.679 344.404 102.199 326.281 87.2992 304.723Z" fill="#121826"/>
<path d="M87.2992 304.723C65.4911 273.09 39.3932 243.205 20.6812 209.038C8.54218 186.912 -3.37781 157.349 12.2812 133.941C29.9552 107.519 68.9272 101.363 97.5632 97.9967C127.063 94.5311 162.288 91.6155 186.402 71.5835C194.074 65.2023 200.402 56.5982 201.576 46.2947C202.711 36.4112 199.506 26.5277 200.568 16.4658C202.947 -6.13 216.415 -24.7476 233.78 -38.251C285.147 -78.2042 361.599 -87.0842 423.573 -88.1285C454.594 -88.6478 486.519 -85.9231 517.741 -83.9711C558.255 -81.4381 598.829 -76.003 637.467 -62.9014C719.617 -35.0546 774.679 26.7036 813.135 103.553C825.237 127.742 834.499 153.915 853.466 173.354C863.244 183.392 861.107 190.601 851.111 199.755C835.482 214.061 816.418 224.994 799.072 236.935C774.399 253.916 749.199 271.15 727.379 291.491C712.339 305.513 701.663 319.022 698.422 340.049C696.11 355.041 696.65 370.317 695.26 385.402C692.614 414.057 683.552 442.496 667.51 466.266C654.764 485.103 639.591 502.229 623.91 518.555C603.441 539.662 585.643 562.476 570.799 586.632C550.272 620.026 521.43 681.623 473.081 665.322C419.749 647.334 369.767 601.63 335.554 557.347C324.064 542.478 314.633 524.244 299.137 513.279C275.937 496.891 252.402 497.467 224.81 497.534C183.501 497.627 93.6102 506.75 92.6422 443.793C92.2602 418.85 102.869 395.266 107.949 371.274C113.679 344.404 102.199 326.281 87.2992 304.723Z" stroke="#F1B170" stroke-width="0.738542" stroke-miterlimit="10"/>
</g>
<defs>
<filter id="filter0_d_1_64" x="0.428711" y="-88.5624" width="863.74" height="764.95" filterUnits="userSpaceOnUse" color-interpolation-filters="sRGB">
<feFlood flood-opacity="0" result="BackgroundImageFix"/>
<feColorMatrix in="SourceAlpha" type="matrix" values="0 0 0 0 0 0 0 0 0 0 0 0 0 0 0 0 0 0 127 0" result="hardAlpha"/>
<feOffset dy="4"/>
<feGaussianBlur stdDeviation="2"/>
<feComposite in2="hardAlpha" operator="out"/>
<feColorMatrix type="matrix" values="0 0 0 0 0.270588 0 0 0 0 0.266667 0 0 0 0 0.862745 0 0 0 1 0"/>
<feBlend mode="normal" in2="BackgroundImageFix" result="effect1_dropShadow_1_64"/>
<feBlend mode="normal" in="SourceGraphic" in2="effect1_dropShadow_1_64" result="shape"/>
</filter>
</defs>
</svg>
