<svg width="1232" height="900" viewBox="0 0 1232 900" fill="none" xmlns="http://www.w3.org/2000/svg">
<g filter="url(#filter0_d_1_60)">
<path d="M285.425 302.163C271.219 279.742 246.292 263.172 225.601 247.577C195.825 225.126 165.114 203.923 134.865 182.109C106.265 161.48 77.5995 140.617 51.1115 117.19C34.9595 102.905 14.6945 85.8214 7.04346 64.6924C-9.55652 18.8956 79.7253 25.8436 101.765 24.6458C156.558 21.6812 218.679 21.0018 269.371 -3.10931C301.024 -18.1671 314.028 -43.1375 307.277 -77.8047C304.944 -89.7994 300.74 -100.04 306.062 -111.972C312.219 -125.782 326.376 -134.393 339.356 -140.469C380.015 -159.51 428.076 -163.556 472.149 -166.922C517.682 -170.399 565.121 -172.852 609.19 -170.307C626.812 -169.294 647.096 -175.044 664.536 -179.454C691.37 -186.247 717.936 -194.085 744.636 -201.374C798.9 -216.197 854.574 -230.477 911.026 -232.101C951.782 -233.274 994.276 -226.913 1028.18 -202.325C1062.55 -177.391 1077.79 -138.741 1096.85 -101.998C1129.76 -38.4758 1174.21 38.7585 1250.35 52.1793C1261.89 54.2172 1272.99 53.112 1284.52 53.6121C1290.45 53.8621 1297.21 54.6681 1300.21 60.6134C1308.02 76.0537 1286.63 104.288 1279.43 116.113C1259.53 148.797 1237.16 179.883 1216.31 211.937C1199.75 237.389 1178.77 265.67 1172.36 295.842C1164.59 332.454 1215.37 358.506 1233.23 384.286C1264.19 428.989 1205.53 454.46 1176.62 475.774C1143.41 500.245 1116 544.886 1145.76 582.747C1157.15 597.223 1171.16 605.852 1176.25 624.745C1184.2 654.292 1178.19 688.058 1171.74 717.262C1162.01 761.17 1146.63 804.601 1125.71 844.286C1110.72 872.7 1085.86 917.253 1049.46 913.908C1024.95 911.678 1000.04 903.532 976.175 896.33C940.444 885.553 905.164 873.269 870.075 860.508C789.067 831.133 708.953 798.747 630.413 763.121C576.823 738.805 427.338 639.431 416.089 635.891C382.552 625.329 344.421 627.188 309.845 628.825C263.851 630.999 218.089 636.632 172.361 641.851C150.595 644.321 128.719 647.342 106.837 648.558C91.2634 649.422 70.8093 650.164 57.1674 640.955C30.5393 622.988 60.2053 581.879 72.4744 564.487C110.058 511.167 157.602 464.993 202.18 417.782C224.056 394.603 246.266 371.46 266.124 346.421C274.129 336.312 294.206 316.011 285.425 302.163Z" fill="#121826"/>
<path d="M285.425 302.163C271.219 279.742 246.292 263.172 225.601 247.577C195.825 225.126 165.114 203.923 134.865 182.109C106.265 161.48 77.5995 140.617 51.1115 117.19C34.9595 102.905 14.6945 85.8214 7.04346 64.6924C-9.55652 18.8956 79.7253 25.8436 101.765 24.6458C156.558 21.6812 218.679 21.0018 269.371 -3.10931C301.024 -18.1671 314.028 -43.1375 307.277 -77.8047C304.944 -89.7994 300.74 -100.04 306.062 -111.972C312.219 -125.782 326.376 -134.393 339.356 -140.469C380.015 -159.51 428.076 -163.556 472.149 -166.922C517.682 -170.399 565.121 -172.852 609.19 -170.307C626.812 -169.294 647.096 -175.044 664.536 -179.454C691.37 -186.247 717.936 -194.085 744.636 -201.374C798.9 -216.197 854.574 -230.477 911.026 -232.101C951.782 -233.274 994.276 -226.913 1028.18 -202.325C1062.55 -177.391 1077.79 -138.741 1096.85 -101.998C1129.76 -38.4758 1174.21 38.7585 1250.35 52.1793C1261.89 54.2172 1272.99 53.112 1284.52 53.6121C1290.45 53.8621 1297.21 54.6681 1300.21 60.6134C1308.02 76.0537 1286.63 104.288 1279.43 116.113C1259.53 148.797 1237.16 179.883 1216.31 211.937C1199.75 237.389 1178.77 265.67 1172.36 295.842C1164.59 332.454 1215.37 358.506 1233.23 384.286C1264.19 428.989 1205.53 454.46 1176.62 475.774C1143.41 500.245 1116 544.886 1145.76 582.747C1157.15 597.223 1171.16 605.852 1176.25 624.745C1184.2 654.292 1178.19 688.058 1171.74 717.262C1162.01 761.17 1146.63 804.601 1125.71 844.286C1110.72 872.7 1085.86 917.253 1049.46 913.908C1024.95 911.678 1000.04 903.532 976.175 896.33C940.444 885.553 905.164 873.269 870.075 860.508C789.067 831.133 708.953 798.747 630.413 763.121C576.823 738.805 427.338 639.431 416.089 635.891C382.552 625.329 344.421 627.188 309.845 628.825C263.851 630.999 218.089 636.632 172.361 641.851C150.595 644.321 128.719 647.342 106.837 648.558C91.2634 649.422 70.8093 650.164 57.1674 640.955C30.5393 622.988 60.2053 581.879 72.4744 564.487C110.058 511.167 157.602 464.993 202.18 417.782C224.056 394.603 246.266 371.46 266.124 346.421C274.129 336.312 294.206 316.011 285.425 302.163Z" stroke="#5ACEF2" stroke-width="0.738542" stroke-miterlimit="10"/>
</g>
<defs>
<filter id="filter0_d_1_60" x="0.629639" y="-232.602" width="1305.64" height="1155.06" filterUnits="userSpaceOnUse" color-interpolation-filters="sRGB">
<feFlood flood-opacity="0" result="BackgroundImageFix"/>
<feColorMatrix in="SourceAlpha" type="matrix" values="0 0 0 0 0 0 0 0 0 0 0 0 0 0 0 0 0 0 127 0" result="hardAlpha"/>
<feOffset dy="4"/>
<feGaussianBlur stdDeviation="2"/>
<feComposite in2="hardAlpha" operator="out"/>
<feColorMatrix type="matrix" values="0 0 0 0 0.270588 0 0 0 0 0.266667 0 0 0 0 0.862745 0 0 0 1 0"/>
<feBlend mode="normal" in2="BackgroundImageFix" result="effect1_dropShadow_1_60"/>
<feBlend mode="normal" in="SourceGraphic" in2="effect1_dropShadow_1_60" result="shape"/>
</filter>
</defs>
</svg>
