<svg width="426" height="634" viewBox="0 0 426 634" fill="none" xmlns="http://www.w3.org/2000/svg">
<g filter="url(#filter0_d_1_77)">
<path d="M-116.731 355.095C-119.567 314.662 -136.323 262.911 -120.478 221.173C-106.941 185.507 -64.6007 180.882 -36.1007 162.146C-12.5677 146.693 -2.09174 121.405 9.67126 96.5609C19.1083 76.6321 28.2613 56.5109 38.9713 37.2165C46.8662 22.9989 58.9213 -1.00305 75.3363 -3.94611C90.0933 -6.59155 105.92 14.5981 114.203 25.3785C126.288 41.1164 136.625 58.2079 147.303 74.941C166.063 104.334 185.272 130.765 212.728 152.358C240.306 174.043 270.476 190.257 300.969 207.131C324.827 220.339 348.56 233.925 371.225 249.169C388.108 260.521 412.382 275.045 420.107 295.283C426.223 311.292 395.207 337.861 386.062 347.238C367.236 366.518 347.286 384.617 327.299 402.605C302.934 424.526 277.792 443.696 256.275 468.701C217.79 513.401 185.621 569.072 136.099 602.297C106.234 622.338 72.9993 627.462 39.7773 624.464C26.6233 623.277 23.4652 604.376 21.8073 593.359C19.0503 575.049 18.7072 556.424 16.5843 538.041C14.5983 520.832 10.1893 504.482 6.63626 487.607C3.03625 470.508 2.03625 452.99 -0.614746 435.775C-2.25476 425.087 -3.87573 412.65 -11.0477 404.059C-18.4687 395.164 -30.7118 391.436 -41.4128 388.605C-61.5088 383.337 -114.727 383.627 -116.731 355.095Z" fill="#121826"/>
<path d="M-116.731 355.095C-119.567 314.662 -136.323 262.911 -120.478 221.173C-106.941 185.507 -64.6007 180.882 -36.1007 162.146C-12.5677 146.693 -2.09174 121.405 9.67126 96.5609C19.1083 76.6321 28.2613 56.5109 38.9713 37.2165C46.8662 22.9989 58.9213 -1.00305 75.3363 -3.94611C90.0933 -6.59155 105.92 14.5981 114.203 25.3785C126.288 41.1164 136.625 58.2079 147.303 74.941C166.063 104.334 185.272 130.765 212.728 152.358C240.306 174.043 270.476 190.257 300.969 207.131C324.827 220.339 348.56 233.925 371.225 249.169C388.108 260.521 412.382 275.045 420.107 295.283C426.223 311.292 395.207 337.861 386.062 347.238C367.236 366.518 347.286 384.617 327.299 402.605C302.934 424.526 277.792 443.696 256.275 468.701C217.79 513.401 185.621 569.072 136.099 602.297C106.234 622.338 72.9993 627.462 39.7773 624.464C26.6233 623.277 23.4652 604.376 21.8073 593.359C19.0503 575.049 18.7072 556.424 16.5843 538.041C14.5983 520.832 10.1893 504.482 6.63626 487.607C3.03625 470.508 2.03625 452.99 -0.614746 435.775C-2.25476 425.087 -3.87573 412.65 -11.0477 404.059C-18.4687 395.164 -30.7118 391.436 -41.4128 388.605C-61.5088 383.337 -114.727 383.627 -116.731 355.095Z" stroke="#5BE7C3" stroke-width="0.738542" stroke-miterlimit="10"/>
</g>
<defs>
<filter id="filter0_d_1_77" x="-131.57" y="-4.542" width="556.839" height="638.166" filterUnits="userSpaceOnUse" color-interpolation-filters="sRGB">
<feFlood flood-opacity="0" result="BackgroundImageFix"/>
<feColorMatrix in="SourceAlpha" type="matrix" values="0 0 0 0 0 0 0 0 0 0 0 0 0 0 0 0 0 0 127 0" result="hardAlpha"/>
<feOffset dy="4"/>
<feGaussianBlur stdDeviation="2"/>
<feComposite in2="hardAlpha" operator="out"/>
<feColorMatrix type="matrix" values="0 0 0 0 0.270588 0 0 0 0 0.266667 0 0 0 0 0.862745 0 0 0 1 0"/>
<feBlend mode="normal" in2="BackgroundImageFix" result="effect1_dropShadow_1_77"/>
<feBlend mode="normal" in="SourceGraphic" in2="effect1_dropShadow_1_77" result="shape"/>
</filter>
</defs>
</svg>
