<svg width="470" height="361" viewBox="0 0 470 361" fill="none" xmlns="http://www.w3.org/2000/svg">
<g filter="url(#filter0_d_1_70)">
<path d="M13.294 242.631C28.043 181.228 59.275 121.334 111.779 84.678C139.622 65.2411 171.943 51.8228 202.979 38.5661C238.149 23.5417 274.902 11.8795 312.435 6.0943C359.171 -1.11203 434.863 -7.60742 459.28 46.5634C483.515 100.333 422.274 147.922 386.058 175.041C362.84 192.413 337.991 208.36 315.802 227.352C303.773 237.649 294.502 249.546 284.327 261.622C256.196 295.083 216.086 321.573 175.202 335.713C135.581 349.421 86.564 355.491 44.739 350.96C26.692 349.014 13.793 342.441 8.33499 323.771C0.772003 297.802 7.202 267.994 13.294 242.631Z" fill="#121826"/>
<path d="M13.294 242.631C28.043 181.228 59.275 121.334 111.779 84.678C139.622 65.2411 171.943 51.8228 202.979 38.5661C238.149 23.5417 274.902 11.8795 312.435 6.0943C359.171 -1.11203 434.863 -7.60742 459.28 46.5634C483.515 100.333 422.274 147.922 386.058 175.041C362.84 192.413 337.991 208.36 315.802 227.352C303.773 237.649 294.502 249.546 284.327 261.622C256.196 295.083 216.086 321.573 175.202 335.713C135.581 349.421 86.564 355.491 44.739 350.96C26.692 349.014 13.793 342.441 8.33499 323.771C0.772003 297.802 7.202 267.994 13.294 242.631Z" stroke="#F1B170" stroke-width="0.738542" stroke-miterlimit="10"/>
</g>
<defs>
<filter id="filter0_d_1_70" x="0.534149" y="0.976109" width="468.638" height="359.836" filterUnits="userSpaceOnUse" color-interpolation-filters="sRGB">
<feFlood flood-opacity="0" result="BackgroundImageFix"/>
<feColorMatrix in="SourceAlpha" type="matrix" values="0 0 0 0 0 0 0 0 0 0 0 0 0 0 0 0 0 0 127 0" result="hardAlpha"/>
<feOffset dy="4"/>
<feGaussianBlur stdDeviation="2"/>
<feComposite in2="hardAlpha" operator="out"/>
<feColorMatrix type="matrix" values="0 0 0 0 0.270588 0 0 0 0 0.266667 0 0 0 0 0.862745 0 0 0 1 0"/>
<feBlend mode="normal" in2="BackgroundImageFix" result="effect1_dropShadow_1_70"/>
<feBlend mode="normal" in="SourceGraphic" in2="effect1_dropShadow_1_70" result="shape"/>
</filter>
</defs>
</svg>
