<svg width="466" height="5" viewBox="0 0 466 5" fill="none" xmlns="http://www.w3.org/2000/svg">
<g filter="url(#filter0_d_1_95)">
<path d="M354.213 157.8C310.492 163.9 265.813 165.412 221.353 165.802C197.053 166.012 170.353 167.587 146.576 161.326C132.226 157.396 117.611 154.171 102.807 151.667C86.6073 149.051 60.5233 147.148 50.6573 132.97C43.2874 122.375 48.3383 100.596 48.6064 87.7113C48.8924 73.5828 46.0443 63.1059 36.2404 52.994C30.0753 46.627 1.79434 23.5152 5.06235 16.8515C8.17233 10.5037 27.8784 9.53015 36.3983 7.88068C63.3283 2.64804 90.6173 0.826019 118.009 1.11108C160.658 1.68394 203.128 5.83652 244.777 13.5059C262.043 16.649 279.886 19.9037 296.377 26.1841C307.484 30.4182 316.746 37.9262 327.777 42.3029C359.377 54.8552 392.791 63.3818 424.5 76.165C434.674 80.2766 467.83 91.2178 459.882 108.08C453.254 122.159 430.712 126.443 419.636 135.879C400.794 151.972 378.24 154.452 354.213 157.8Z" fill="#121826"/>
<path d="M354.213 157.8C310.492 163.9 265.813 165.412 221.353 165.802C197.053 166.012 170.353 167.587 146.576 161.326C132.226 157.396 117.611 154.171 102.807 151.667C86.6073 149.051 60.5233 147.148 50.6573 132.97C43.2874 122.375 48.3383 100.596 48.6064 87.7113C48.8924 73.5828 46.0443 63.1059 36.2404 52.994C30.0753 46.627 1.79434 23.5152 5.06235 16.8515C8.17233 10.5037 27.8784 9.53015 36.3983 7.88068C63.3283 2.64804 90.6173 0.826019 118.009 1.11108C160.658 1.68394 203.128 5.83652 244.777 13.5059C262.043 16.649 279.886 19.9037 296.377 26.1841C307.484 30.4182 316.746 37.9262 327.777 42.3029C359.377 54.8552 392.791 63.3818 424.5 76.165C434.674 80.2766 467.83 91.2178 459.882 108.08C453.254 122.159 430.712 126.443 419.636 135.879C400.794 151.972 378.24 154.452 354.213 157.8Z" stroke="#5ACEF2" stroke-width="0.738542" stroke-miterlimit="10"/>
</g>
<defs>
<filter id="filter0_d_1_95" x="0.431152" y="0.713257" width="465.039" height="173.786" filterUnits="userSpaceOnUse" color-interpolation-filters="sRGB">
<feFlood flood-opacity="0" result="BackgroundImageFix"/>
<feColorMatrix in="SourceAlpha" type="matrix" values="0 0 0 0 0 0 0 0 0 0 0 0 0 0 0 0 0 0 127 0" result="hardAlpha"/>
<feOffset dy="4"/>
<feGaussianBlur stdDeviation="2"/>
<feComposite in2="hardAlpha" operator="out"/>
<feColorMatrix type="matrix" values="0 0 0 0 0.270588 0 0 0 0 0.266667 0 0 0 0 0.862745 0 0 0 1 0"/>
<feBlend mode="normal" in2="BackgroundImageFix" result="effect1_dropShadow_1_95"/>
<feBlend mode="normal" in="SourceGraphic" in2="effect1_dropShadow_1_95" result="shape"/>
</filter>
</defs>
</svg>
