<svg width="1289" height="900" viewBox="0 0 1289 900" fill="none" xmlns="http://www.w3.org/2000/svg">
<g filter="url(#filter0_d_1_59)">
<path d="M326.453 305.734C326.353 284.546 287.589 260.72 271.03 248.437C238.287 224.142 204.23 201.705 170.494 178.911C136.758 156.117 102.926 133.384 70.754 108.359C49.865 92.1148 25.3201 73.819 11.1541 50.623C-19.026 1.19135 76.129 8.53186 100.778 7.4483C163.478 4.6861 235.405 5.948 294.178 -19.7951C329.265 -35.1621 343.256 -60.9343 335.72 -98.4963C333.291 -110.712 326.101 -124.77 332.192 -136.67C338.692 -149.38 353.658 -156.715 366.076 -161.633C411.371 -179.553 463.448 -181.628 511.376 -183.877C563.053 -186.348 615.215 -185.627 666.528 -185.817C688.286 -185.901 711.009 -193.85 731.728 -200.313C758.89 -208.785 785.728 -218.3 812.668 -227.501C871.929 -247.694 932.994 -268.962 995.692 -274.093C1034.96 -277.306 1077.87 -272.962 1108.37 -245.015C1123.69 -230.983 1131.7 -210.123 1140.56 -191.589C1151.28 -169.202 1161.57 -146.599 1172.98 -124.565C1209.74 -53.5996 1262.21 15.7465 1347.39 19.2321C1360.28 19.7572 1372.93 18.0461 1385.76 17.7244C1393.92 17.5268 1401.19 19.5347 1404.23 28.2263C1411.86 50.032 1387.87 84.4551 1378.03 101.756C1356.49 139.627 1332.2 175.799 1309.45 212.91C1294.39 237.453 1268.34 270.992 1268.06 300.812C1267.82 327.382 1302.56 346.585 1321.46 359.673C1339.18 371.925 1371.29 389.075 1373.23 413.996C1374.17 426.082 1366.34 436.098 1358.16 443.871C1343.82 457.466 1327.31 467.055 1314.41 482.565C1293.26 508.009 1275.59 543.02 1278.46 577.307C1280.45 601.061 1293.77 616.623 1310.72 631.497C1317.84 637.748 1323.62 642.174 1324 652.327C1324.61 668.448 1318.4 685.508 1313.29 700.455C1295 753.946 1269.02 805.67 1240.12 853.965C1225.68 878.1 1210.08 902.16 1190.94 922.749C1178.4 936.274 1161.48 952.364 1142.36 952.346C1120.21 952.346 1096.78 944.214 1075.25 938.134C1035.04 926.771 995.323 913.634 955.761 900.158C864.269 868.978 773.637 835.274 683.866 799.045C620.634 773.479 556.059 747.884 496.61 713.899C484.813 707.081 473.864 699.296 463.928 690.66C453.089 681.435 439.638 677.307 425.999 674.23C341.349 655.131 248.61 669.793 163.608 678.987C142.032 681.321 120.457 683.655 98.821 685.29C80.2211 686.693 57.9531 690.715 39.8761 684.673C4.25513 672.778 35.395 628.938 48.5601 611.076C94.911 548.18 154.713 494.971 210.142 440.641C236.497 414.769 263.051 388.965 287.973 361.626C300.949 347.418 326.538 324.309 326.453 305.734Z" fill="#121826"/>
<path d="M326.453 305.734C326.353 284.546 287.589 260.72 271.03 248.437C238.287 224.142 204.23 201.705 170.494 178.911C136.758 156.117 102.926 133.384 70.754 108.359C49.865 92.1148 25.3201 73.819 11.1541 50.623C-19.026 1.19135 76.129 8.53186 100.778 7.4483C163.478 4.6861 235.405 5.948 294.178 -19.7951C329.265 -35.1621 343.256 -60.9343 335.72 -98.4963C333.291 -110.712 326.101 -124.77 332.192 -136.67C338.692 -149.38 353.658 -156.715 366.076 -161.633C411.371 -179.553 463.448 -181.628 511.376 -183.877C563.053 -186.348 615.215 -185.627 666.528 -185.817C688.286 -185.901 711.009 -193.85 731.728 -200.313C758.89 -208.785 785.728 -218.3 812.668 -227.501C871.929 -247.694 932.994 -268.962 995.692 -274.093C1034.96 -277.306 1077.87 -272.962 1108.37 -245.015C1123.69 -230.983 1131.7 -210.123 1140.56 -191.589C1151.28 -169.202 1161.57 -146.599 1172.98 -124.565C1209.74 -53.5996 1262.21 15.7465 1347.39 19.2321C1360.28 19.7572 1372.93 18.0461 1385.76 17.7244C1393.92 17.5268 1401.19 19.5347 1404.23 28.2263C1411.86 50.032 1387.87 84.4551 1378.03 101.756C1356.49 139.627 1332.2 175.799 1309.45 212.91C1294.39 237.453 1268.34 270.992 1268.06 300.812C1267.82 327.382 1302.56 346.585 1321.46 359.673C1339.18 371.925 1371.29 389.075 1373.23 413.996C1374.17 426.082 1366.34 436.098 1358.16 443.871C1343.82 457.466 1327.31 467.055 1314.41 482.565C1293.26 508.009 1275.59 543.02 1278.46 577.307C1280.45 601.061 1293.77 616.623 1310.72 631.497C1317.84 637.748 1323.62 642.174 1324 652.327C1324.61 668.448 1318.4 685.508 1313.29 700.455C1295 753.946 1269.02 805.67 1240.12 853.965C1225.68 878.1 1210.08 902.16 1190.94 922.749C1178.4 936.274 1161.48 952.364 1142.36 952.346C1120.21 952.346 1096.78 944.214 1075.25 938.134C1035.04 926.771 995.323 913.634 955.761 900.158C864.269 868.978 773.637 835.274 683.866 799.045C620.634 773.479 556.059 747.884 496.61 713.899C484.813 707.081 473.864 699.296 463.928 690.66C453.089 681.435 439.638 677.307 425.999 674.23C341.349 655.131 248.61 669.793 163.608 678.987C142.032 681.321 120.457 683.655 98.821 685.29C80.2211 686.693 57.9531 690.715 39.8761 684.673C4.25513 672.778 35.395 628.938 48.5601 611.076C94.911 548.18 154.713 494.971 210.142 440.641C236.497 414.769 263.051 388.965 287.973 361.626C300.949 347.418 326.538 324.309 326.453 305.734Z" stroke="#5BE7C3" stroke-width="0.738542" stroke-miterlimit="10"/>
</g>
<defs>
<filter id="filter0_d_1_59" x="0.932678" y="-275.369" width="1409.14" height="1236.08" filterUnits="userSpaceOnUse" color-interpolation-filters="sRGB">
<feFlood flood-opacity="0" result="BackgroundImageFix"/>
<feColorMatrix in="SourceAlpha" type="matrix" values="0 0 0 0 0 0 0 0 0 0 0 0 0 0 0 0 0 0 127 0" result="hardAlpha"/>
<feOffset dy="4"/>
<feGaussianBlur stdDeviation="2"/>
<feComposite in2="hardAlpha" operator="out"/>
<feColorMatrix type="matrix" values="0 0 0 0 0.270588 0 0 0 0 0.266667 0 0 0 0 0.862745 0 0 0 1 0"/>
<feBlend mode="normal" in2="BackgroundImageFix" result="effect1_dropShadow_1_59"/>
<feBlend mode="normal" in="SourceGraphic" in2="effect1_dropShadow_1_59" result="shape"/>
</filter>
</defs>
</svg>
