<svg width="455" height="681" viewBox="0 0 455 681" fill="none" xmlns="http://www.w3.org/2000/svg">
<g filter="url(#filter0_d_1_76)">
<path d="M-130.032 363.675C-130.802 315.44 -155.997 265.31 -143.554 216.161C-133.336 175.795 -81.8968 172.425 -51.0378 154.137C-26.5158 139.608 -12.5988 113.87 0.662231 89.1758C12.5772 67.0051 23.2802 44.1675 35.8322 22.3626C43.9582 8.26587 57.9102 -19.4167 75.5322 -19.916C92.4022 -20.3978 107.87 1.1712 117.67 13.9236C130.447 30.545 141.77 48.2632 154.18 65.1522C175.088 93.6367 200.174 114.721 228.899 134.675C261.587 157.38 294.815 179.31 328.582 200.464C353.444 216.085 378.475 231.59 402.373 248.755C417.363 259.525 450.448 279.734 450.6 299.59C450.672 309.064 441.849 319.557 435.9 327.13C425.834 339.95 414.361 351.67 402.852 363.137C381.416 384.498 359.071 404.894 336.968 425.531C308.28 452.317 280.877 478.666 255.658 509.076C229.583 540.554 204.673 573.069 179.258 605.139C162.039 626.866 144.842 651.264 120.011 664.6C88.9112 681.265 63.3812 663.692 31.9282 663.489C4.87122 663.31 6.86621 599.515 3.42822 581.776C-0.0217896 563.821 -7.62576 547.103 -10.5718 529.11C-14.2468 506.643 -14.2948 483.658 -15.1988 460.951C-16.2988 433.177 -16.7328 406.735 -45.9058 396.144C-62.5058 390.127 -80.4698 388.861 -97.6548 385.257C-108.79 382.914 -129.789 378.914 -130.032 363.675Z" fill="#121826"/>
<path d="M-130.032 363.675C-130.802 315.44 -155.997 265.31 -143.554 216.161C-133.336 175.795 -81.8968 172.425 -51.0378 154.137C-26.5158 139.608 -12.5988 113.87 0.662231 89.1758C12.5772 67.0051 23.2802 44.1675 35.8322 22.3626C43.9582 8.26587 57.9102 -19.4167 75.5322 -19.916C92.4022 -20.3978 107.87 1.1712 117.67 13.9236C130.447 30.545 141.77 48.2632 154.18 65.1522C175.088 93.6367 200.174 114.721 228.899 134.675C261.587 157.38 294.815 179.31 328.582 200.464C353.444 216.085 378.475 231.59 402.373 248.755C417.363 259.525 450.448 279.734 450.6 299.59C450.672 309.064 441.849 319.557 435.9 327.13C425.834 339.95 414.361 351.67 402.852 363.137C381.416 384.498 359.071 404.894 336.968 425.531C308.28 452.317 280.877 478.666 255.658 509.076C229.583 540.554 204.673 573.069 179.258 605.139C162.039 626.866 144.842 651.264 120.011 664.6C88.9112 681.265 63.3812 663.692 31.9282 663.489C4.87122 663.31 6.86621 599.515 3.42822 581.776C-0.0217896 563.821 -7.62576 547.103 -10.5718 529.11C-14.2468 506.643 -14.2948 483.658 -15.1988 460.951C-16.2988 433.177 -16.7328 406.735 -45.9058 396.144C-62.5058 390.127 -80.4698 388.861 -97.6548 385.257C-108.79 382.914 -129.789 378.914 -130.032 363.675Z" stroke="#FF8062" stroke-width="0.738542" stroke-miterlimit="10"/>
</g>
<defs>
<filter id="filter0_d_1_76" x="-151.369" y="-20.2932" width="606.339" height="700.434" filterUnits="userSpaceOnUse" color-interpolation-filters="sRGB">
<feFlood flood-opacity="0" result="BackgroundImageFix"/>
<feColorMatrix in="SourceAlpha" type="matrix" values="0 0 0 0 0 0 0 0 0 0 0 0 0 0 0 0 0 0 127 0" result="hardAlpha"/>
<feOffset dy="4"/>
<feGaussianBlur stdDeviation="2"/>
<feComposite in2="hardAlpha" operator="out"/>
<feColorMatrix type="matrix" values="0 0 0 0 0.270588 0 0 0 0 0.266667 0 0 0 0 0.862745 0 0 0 1 0"/>
<feBlend mode="normal" in2="BackgroundImageFix" result="effect1_dropShadow_1_76"/>
<feBlend mode="normal" in="SourceGraphic" in2="effect1_dropShadow_1_76" result="shape"/>
</filter>
</defs>
</svg>
