<svg width="206" height="255" viewBox="0 0 206 255" fill="none" xmlns="http://www.w3.org/2000/svg">
<g filter="url(#filter0_d_1_82)">
<path d="M-24.7622 145.561C-15.5032 112.577 13.4148 95.0465 34.0878 70.1202C51.0028 49.714 63.6878 7.45534 92.1728 1.86513C124.515 -4.47937 143.873 51.5135 155.121 73.1191C167.599 97.0811 189.821 116.571 199.059 141.937C203.915 155.252 199.744 167.671 197.158 180.981C194.323 195.593 192.191 210.532 182.399 222.293C163.14 245.435 125.516 245.279 98.4188 245.915C70.3688 246.577 45.5558 230.716 23.2068 214.885C-0.495224 198.122 -34.2462 179.385 -24.7622 145.561Z" fill="#121826"/>
<path d="M-24.7622 145.561C-15.5032 112.577 13.4148 95.0465 34.0878 70.1202C51.0028 49.714 63.6878 7.45534 92.1728 1.86513C124.515 -4.47937 143.873 51.5135 155.121 73.1191C167.599 97.0811 189.821 116.571 199.059 141.937C203.915 155.252 199.744 167.671 197.158 180.981C194.323 195.593 192.191 210.532 182.399 222.293C163.14 245.435 125.516 245.279 98.4188 245.915C70.3688 246.577 45.5558 230.716 23.2068 214.885C-0.495224 198.122 -34.2462 179.385 -24.7622 145.561Z" stroke="#5ACEF2" stroke-width="0.738542" stroke-miterlimit="10"/>
</g>
<defs>
<filter id="filter0_d_1_82" x="-30.7708" y="0.997902" width="236.438" height="253.307" filterUnits="userSpaceOnUse" color-interpolation-filters="sRGB">
<feFlood flood-opacity="0" result="BackgroundImageFix"/>
<feColorMatrix in="SourceAlpha" type="matrix" values="0 0 0 0 0 0 0 0 0 0 0 0 0 0 0 0 0 0 127 0" result="hardAlpha"/>
<feOffset dy="4"/>
<feGaussianBlur stdDeviation="2"/>
<feComposite in2="hardAlpha" operator="out"/>
<feColorMatrix type="matrix" values="0 0 0 0 0.270588 0 0 0 0 0.266667 0 0 0 0 0.862745 0 0 0 1 0"/>
<feBlend mode="normal" in2="BackgroundImageFix" result="effect1_dropShadow_1_82"/>
<feBlend mode="normal" in="SourceGraphic" in2="effect1_dropShadow_1_82" result="shape"/>
</filter>
</defs>
</svg>
