<svg width="381" height="553" viewBox="0 0 381 553" fill="none" xmlns="http://www.w3.org/2000/svg">
<g filter="url(#filter0_d_1_78)">
<path d="M-99.6111 323.169C-104.381 286.054 -111.058 239.828 -91.6271 205.634C-75.7441 177.674 -41.8701 171.643 -17.6751 153.426C2.44891 138.276 10.0499 114.182 20.0389 91.7909C28.239 73.425 36.4749 54.9791 46.4089 37.5025C53.9429 24.2501 63.6529 6.27759 78.6089 1.65344C91.3989 -2.2973 105.848 15.4018 112.939 24.2109C125.012 39.2245 134.855 56.0501 144.632 72.6474C160.624 99.8099 175.34 128.824 198.101 150.919C220.218 172.359 246.491 185.015 273.256 199.245C293.756 210.147 314.13 221.469 333.445 234.471C348.28 244.446 366.66 256.267 374.389 272.868C381.073 287.184 363.914 304.129 355.341 314.23C341.184 330.899 325.471 346.189 309.977 361.542C293.256 378.106 274.736 393.382 258.555 410.356C224.529 446.069 197.345 485.609 155.408 512.97C128.247 530.693 91.6989 546.793 59.5989 543.898C36.5099 541.814 38.0289 489.819 35.8109 473.206C32.1649 446.044 25.1229 417.504 13.9369 392.483C4.33093 371.043 -18.4971 364.431 -39.4961 359.622C-52.6511 356.603 -66.4371 354.974 -79.1611 350.306C-93.8931 344.899 -97.6121 338.726 -99.6111 323.169Z" fill="#121826"/>
<path d="M-99.6111 323.169C-104.381 286.054 -111.058 239.828 -91.6271 205.634C-75.7441 177.674 -41.8701 171.643 -17.6751 153.426C2.44891 138.276 10.0499 114.182 20.0389 91.7909C28.239 73.425 36.4749 54.9791 46.4089 37.5025C53.9429 24.2501 63.6529 6.27759 78.6089 1.65344C91.3989 -2.2973 105.848 15.4018 112.939 24.2109C125.012 39.2245 134.855 56.0501 144.632 72.6474C160.624 99.8099 175.34 128.824 198.101 150.919C220.218 172.359 246.491 185.015 273.256 199.245C293.756 210.147 314.13 221.469 333.445 234.471C348.28 244.446 366.66 256.267 374.389 272.868C381.073 287.184 363.914 304.129 355.341 314.23C341.184 330.899 325.471 346.189 309.977 361.542C293.256 378.106 274.736 393.382 258.555 410.356C224.529 446.069 197.345 485.609 155.408 512.97C128.247 530.693 91.6989 546.793 59.5989 543.898C36.5099 541.814 38.0289 489.819 35.8109 473.206C32.1649 446.044 25.1229 417.504 13.9369 392.483C4.33093 371.043 -18.4971 364.431 -39.4961 359.622C-52.6511 356.603 -66.4371 354.974 -79.1611 350.306C-93.8931 344.899 -97.6121 338.726 -99.6111 323.169Z" stroke="#5ACEF2" stroke-width="0.738542" stroke-miterlimit="10"/>
</g>
<defs>
<filter id="filter0_d_1_78" x="-109.07" y="0.717164" width="489.34" height="551.889" filterUnits="userSpaceOnUse" color-interpolation-filters="sRGB">
<feFlood flood-opacity="0" result="BackgroundImageFix"/>
<feColorMatrix in="SourceAlpha" type="matrix" values="0 0 0 0 0 0 0 0 0 0 0 0 0 0 0 0 0 0 127 0" result="hardAlpha"/>
<feOffset dy="4"/>
<feGaussianBlur stdDeviation="2"/>
<feComposite in2="hardAlpha" operator="out"/>
<feColorMatrix type="matrix" values="0 0 0 0 0.270588 0 0 0 0 0.266667 0 0 0 0 0.862745 0 0 0 1 0"/>
<feBlend mode="normal" in2="BackgroundImageFix" result="effect1_dropShadow_1_78"/>
<feBlend mode="normal" in="SourceGraphic" in2="effect1_dropShadow_1_78" result="shape"/>
</filter>
</defs>
</svg>
