<svg width="285" height="216" viewBox="0 0 285 216" fill="none" xmlns="http://www.w3.org/2000/svg">
<g filter="url(#filter0_d_1_73)">
<path d="M13.8913 139.225C41.8483 63.9336 123.165 20.7514 197.928 6.51628C216.24 3.03313 262.747 -7.81221 276.616 13.1983C289.45 32.6336 258.816 60.7963 247.362 71.9875C221.851 96.9088 191.617 117.436 161.749 137.166C134.132 155.42 106.217 174.136 77.1583 189.575C61.8583 197.702 33.1463 215.045 15.7583 202.494C-2.97266 188.996 7.68332 155.943 13.8913 139.225Z" fill="#121826"/>
<path d="M13.8913 139.225C41.8483 63.9336 123.165 20.7514 197.928 6.51628C216.24 3.03313 262.747 -7.81221 276.616 13.1983C289.45 32.6336 258.816 60.7963 247.362 71.9875C221.851 96.9088 191.617 117.436 161.749 137.166C134.132 155.42 106.217 174.136 77.1583 189.575C61.8583 197.702 33.1463 215.045 15.7583 202.494C-2.97266 188.996 7.68332 155.943 13.8913 139.225Z" stroke="#5ACEF2" stroke-width="0.738542" stroke-miterlimit="10"/>
</g>
<defs>
<filter id="filter0_d_1_73" x="0.833008" y="0.239296" width="283.237" height="215.043" filterUnits="userSpaceOnUse" color-interpolation-filters="sRGB">
<feFlood flood-opacity="0" result="BackgroundImageFix"/>
<feColorMatrix in="SourceAlpha" type="matrix" values="0 0 0 0 0 0 0 0 0 0 0 0 0 0 0 0 0 0 127 0" result="hardAlpha"/>
<feOffset dy="4"/>
<feGaussianBlur stdDeviation="2"/>
<feComposite in2="hardAlpha" operator="out"/>
<feColorMatrix type="matrix" values="0 0 0 0 0.270588 0 0 0 0 0.266667 0 0 0 0 0.862745 0 0 0 1 0"/>
<feBlend mode="normal" in2="BackgroundImageFix" result="effect1_dropShadow_1_73"/>
<feBlend mode="normal" in="SourceGraphic" in2="effect1_dropShadow_1_73" result="shape"/>
</filter>
</defs>
</svg>
