<svg width="1125" height="153" viewBox="0 0 1125 153" fill="none" xmlns="http://www.w3.org/2000/svg">
<g filter="url(#filter0_d_1_90)">
<path d="M982.842 361.401C933.668 388.311 879.194 408.386 826.233 427.593C761.967 450.897 696.089 471.672 628.686 483.308C586.344 490.611 539.662 496.223 497.601 484.085C468.881 475.801 446.664 453.404 421.439 437.994C396.214 422.583 369.967 408.121 342.939 396.064C326.163 388.582 308.116 381.045 289.449 382.032C244.062 384.428 198.729 390.138 153.294 392.91C123.236 394.762 93.1178 396.287 62.9688 395.827C44.7887 395.556 19.8129 396.667 3.7168 386.938C-14.0742 376.177 80.6569 284.305 89.6099 273.964C112.057 248.036 139.24 213.625 134.9 176.752C130.749 141.502 112.757 115.185 92.4058 87.5688C80.8568 71.8576 43.8218 29.8848 57.5468 9.45105C65.3878 -2.22861 91.2328 1.81461 103.512 2.6106C127.712 4.17838 151.774 7.54904 175.845 10.4754C210.945 14.7162 247.004 21.2666 282.253 23.1861C306.797 24.5197 331.488 22.7351 356.075 22.6985C391.33 22.6493 426.584 22.921 461.839 23.2419C491.439 23.5136 521.292 23.2419 550.79 26.1308C569.128 27.9086 583.048 31.9027 596.201 43.1881C607.647 53.0041 624.915 58.751 639.501 64.9921C663.601 75.2957 688.006 84.8458 712.338 94.5501C763.281 114.873 814.807 134.77 863.568 160.167C885.827 171.753 923.251 187.978 928.468 216.073C930.352 226.204 931.738 230.581 941.468 236.34C955.268 244.514 971.805 248.199 987.293 251.403C1023.39 258.873 1060.55 257.755 1096.59 265.139C1111.27 268.183 1130.44 274.752 1113.68 289.79C1094.13 307.377 1065.66 317.045 1042.23 327.911C1030.54 333.328 1018.49 338.405 1007.39 345.023C998.865 350.122 991.565 356.66 982.842 361.401Z" fill="#121826"/>
<path d="M982.842 361.401C933.668 388.311 879.194 408.386 826.233 427.593C761.967 450.897 696.089 471.672 628.686 483.308C586.344 490.611 539.662 496.223 497.601 484.085C468.881 475.801 446.664 453.404 421.439 437.994C396.214 422.583 369.967 408.121 342.939 396.064C326.163 388.582 308.116 381.045 289.449 382.032C244.062 384.428 198.729 390.138 153.294 392.91C123.236 394.762 93.1178 396.287 62.9688 395.827C44.7887 395.556 19.8129 396.667 3.7168 386.938C-14.0742 376.177 80.6569 284.305 89.6099 273.964C112.057 248.036 139.24 213.625 134.9 176.752C130.749 141.502 112.757 115.185 92.4058 87.5688C80.8568 71.8576 43.8218 29.8848 57.5468 9.45105C65.3878 -2.22861 91.2328 1.81461 103.512 2.6106C127.712 4.17838 151.774 7.54904 175.845 10.4754C210.945 14.7162 247.004 21.2666 282.253 23.1861C306.797 24.5197 331.488 22.7351 356.075 22.6985C391.33 22.6493 426.584 22.921 461.839 23.2419C491.439 23.5136 521.292 23.2419 550.79 26.1308C569.128 27.9086 583.048 31.9027 596.201 43.1881C607.647 53.0041 624.915 58.751 639.501 64.9921C663.601 75.2957 688.006 84.8458 712.338 94.5501C763.281 114.873 814.807 134.77 863.568 160.167C885.827 171.753 923.251 187.978 928.468 216.073C930.352 226.204 931.738 230.581 941.468 236.34C955.268 244.514 971.805 248.199 987.293 251.403C1023.39 258.873 1060.55 257.755 1096.59 265.139C1111.27 268.183 1130.44 274.752 1113.68 289.79C1094.13 307.377 1065.66 317.045 1042.23 327.911C1030.54 333.328 1018.49 338.405 1007.39 345.023C998.865 350.122 991.565 356.66 982.842 361.401Z" stroke="#5ACEF2" stroke-width="0.738542" stroke-miterlimit="10"/>
</g>
<defs>
<filter id="filter0_d_1_90" x="-2.87207" y="0.920654" width="1127.44" height="498.624" filterUnits="userSpaceOnUse" color-interpolation-filters="sRGB">
<feFlood flood-opacity="0" result="BackgroundImageFix"/>
<feColorMatrix in="SourceAlpha" type="matrix" values="0 0 0 0 0 0 0 0 0 0 0 0 0 0 0 0 0 0 127 0" result="hardAlpha"/>
<feOffset dy="4"/>
<feGaussianBlur stdDeviation="2"/>
<feComposite in2="hardAlpha" operator="out"/>
<feColorMatrix type="matrix" values="0 0 0 0 0.270588 0 0 0 0 0.266667 0 0 0 0 0.862745 0 0 0 1 0"/>
<feBlend mode="normal" in2="BackgroundImageFix" result="effect1_dropShadow_1_90"/>
<feBlend mode="normal" in="SourceGraphic" in2="effect1_dropShadow_1_90" result="shape"/>
</filter>
</defs>
</svg>
