<svg width="1079" height="804" viewBox="0 0 1079 804" fill="none" xmlns="http://www.w3.org/2000/svg">
<g filter="url(#filter0_d_1_62)">
<path d="M183.418 301.109C147.566 261.441 104.373 228.852 65.884 191.731C48.626 175.087 31.1981 157.627 18.0491 137.322C10.9761 126.404 3.46497 112.659 5.41602 99.0886C11.016 60.1373 77.193 63.6555 103.931 61.3742C143.66 58.0227 189.302 54.6472 224.431 33.6449C247.443 19.8923 256.072 -0.428101 251.776 -26.6304C247.164 -54.7373 257.476 -75.1395 280.944 -90.8198C310.367 -110.463 347.508 -118.469 381.67 -124.159C422.657 -130.966 464.419 -133.995 506.201 -133.19C546.75 -132.399 586.036 -139.311 626.318 -143.806C679.726 -149.76 734.847 -152.697 787.653 -140.492C833.629 -129.865 875.153 -106.444 906.287 -70.2293C938.801 -32.424 954.901 15.2015 981.301 57.0209C997.769 83.109 1020.73 117.615 1051.5 127.751C1061.76 131.134 1080.47 126.57 1072.27 143.208C1067.59 152.724 1058.82 161.07 1051.89 168.848C1040.7 181.418 1029.14 193.641 1017.76 206.038C993.501 232.459 967.523 259.45 949.342 290.741C926.433 330.137 960.487 360.457 956.336 400.404C954.106 421.901 939.413 439.058 923.868 452.537C913.869 461.027 903.068 468.835 891.568 475.883C879.834 483.252 865.949 488.867 855.716 498.394C841.132 511.953 847.464 528.003 850.198 545.531C855.015 576.416 856.07 607.628 853.349 638.69C850.019 676.77 842.211 715.937 825.761 750.544C819.361 764.017 811.261 778.299 799.218 787.332C787.175 796.364 774.729 795.75 760.935 793.026C720.021 784.989 679.192 766.286 640.38 748.56C591.801 726.373 544.182 701.571 498.701 673.363C467.309 653.888 435.814 632.847 409.551 606.442C401.623 598.682 394.66 590.271 388.769 581.34C384.734 575.039 382.569 566.909 376.725 562.169C358.434 547.387 321.713 551.801 300.263 552.66C257.453 554.373 215.318 562.515 172.563 564.496C149.229 565.579 112.684 568.298 95.548 548.087C79.433 529.083 94.029 499.161 103.66 480.856C122.589 444.86 148.019 412.79 170.813 379.33C180.183 365.56 190.453 351.158 196.523 335.432C201.921 321.42 192.601 311.28 183.418 301.109Z" fill="#121826"/>
<path d="M183.418 301.109C147.566 261.441 104.373 228.852 65.884 191.731C48.626 175.087 31.1981 157.627 18.0491 137.322C10.9761 126.404 3.46497 112.659 5.41602 99.0886C11.016 60.1373 77.193 63.6555 103.931 61.3742C143.66 58.0227 189.302 54.6472 224.431 33.6449C247.443 19.8923 256.072 -0.428101 251.776 -26.6304C247.164 -54.7373 257.476 -75.1395 280.944 -90.8198C310.367 -110.463 347.508 -118.469 381.67 -124.159C422.657 -130.966 464.419 -133.995 506.201 -133.19C546.75 -132.399 586.036 -139.311 626.318 -143.806C679.726 -149.76 734.847 -152.697 787.653 -140.492C833.629 -129.865 875.153 -106.444 906.287 -70.2293C938.801 -32.424 954.901 15.2015 981.301 57.0209C997.769 83.109 1020.73 117.615 1051.5 127.751C1061.76 131.134 1080.47 126.57 1072.27 143.208C1067.59 152.724 1058.82 161.07 1051.89 168.848C1040.7 181.418 1029.14 193.641 1017.76 206.038C993.501 232.459 967.523 259.45 949.342 290.741C926.433 330.137 960.487 360.457 956.336 400.404C954.106 421.901 939.413 439.058 923.868 452.537C913.869 461.027 903.068 468.835 891.568 475.883C879.834 483.252 865.949 488.867 855.716 498.394C841.132 511.953 847.464 528.003 850.198 545.531C855.015 576.416 856.07 607.628 853.349 638.69C850.019 676.77 842.211 715.937 825.761 750.544C819.361 764.017 811.261 778.299 799.218 787.332C787.175 796.364 774.729 795.75 760.935 793.026C720.021 784.989 679.192 766.286 640.38 748.56C591.801 726.373 544.182 701.571 498.701 673.363C467.309 653.888 435.814 632.847 409.551 606.442C401.623 598.682 394.66 590.271 388.769 581.34C384.734 575.039 382.569 566.909 376.725 562.169C358.434 547.387 321.713 551.801 300.263 552.66C257.453 554.373 215.318 562.515 172.563 564.496C149.229 565.579 112.684 568.298 95.548 548.087C79.433 529.083 94.029 499.161 103.66 480.856C122.589 444.86 148.019 412.79 170.813 379.33C180.183 365.56 190.453 351.158 196.523 335.432C201.921 321.42 192.601 311.28 183.418 301.109Z" stroke="#5ACEF2" stroke-width="0.738542" stroke-miterlimit="10"/>
</g>
<defs>
<filter id="filter0_d_1_62" x="0.733276" y="-149.329" width="1077.93" height="952.502" filterUnits="userSpaceOnUse" color-interpolation-filters="sRGB">
<feFlood flood-opacity="0" result="BackgroundImageFix"/>
<feColorMatrix in="SourceAlpha" type="matrix" values="0 0 0 0 0 0 0 0 0 0 0 0 0 0 0 0 0 0 127 0" result="hardAlpha"/>
<feOffset dy="4"/>
<feGaussianBlur stdDeviation="2"/>
<feComposite in2="hardAlpha" operator="out"/>
<feColorMatrix type="matrix" values="0 0 0 0 0.270588 0 0 0 0 0.266667 0 0 0 0 0.862745 0 0 0 1 0"/>
<feBlend mode="normal" in2="BackgroundImageFix" result="effect1_dropShadow_1_62"/>
<feBlend mode="normal" in="SourceGraphic" in2="effect1_dropShadow_1_62" result="shape"/>
</filter>
</defs>
</svg>
