<svg width="790" height="87" viewBox="0 0 790 87" fill="none" xmlns="http://www.w3.org/2000/svg">
<g filter="url(#filter0_d_1_92)">
<path d="M693.468 277.537C603.782 312.896 498.673 336.99 400.893 332.322C368.377 330.764 333.391 325.565 305.201 307.774C288.581 297.264 275.301 285.401 255.335 281.602C240.922 278.863 225.403 281.973 210.905 283.098C189.905 284.73 168.896 286.189 147.867 287.37C121.797 288.81 95.6411 289.923 69.5221 289.329C50.8591 288.903 25.0861 289.385 8.87408 279.185C-10.4829 267.016 38.7881 209.947 45.7201 199.778C62.5201 175.13 74.3021 151.25 78.5591 121.545C79.8121 112.89 84.0321 104.019 83.4851 95.2959C82.9131 86.3876 77.5191 78.4594 72.5391 71.4523C66.0261 62.2723 43.4282 40.4991 49.8981 29.3037C53.4741 23.1217 66.8981 22.3424 73.8521 21.0321C86.9021 18.5592 100.141 17.2306 113.271 15.2644C135.547 11.9138 157.664 1.00259 180.019 1.31183C240.132 2.12781 301.119 21.0938 360.024 31.5107C395.046 37.7235 430.305 43.3613 464.901 51.7753C475.847 54.4425 487.122 57.193 497.527 61.7163C504.788 64.8694 509.452 70.4888 516.178 74.0186C541.969 87.5753 571.627 95.8043 599.321 104.928C635.277 116.8 671.351 128.31 707.054 140.948C729.433 148.866 758.21 155.834 777.493 170.522C791.577 181.248 781.951 184.457 774.519 194.443C770.725 199.542 771.601 204.559 769.952 210.327C767.599 218.561 760.946 224.49 754.706 229.819C746.106 237.182 734.638 243.247 727.606 252.272C725.125 255.45 725.24 259.394 723.234 262.163C717.392 270.23 701.901 274.211 693.468 277.537Z" fill="#121826"/>
<path d="M693.468 277.537C603.782 312.896 498.673 336.99 400.893 332.322C368.377 330.764 333.391 325.565 305.201 307.774C288.581 297.264 275.301 285.401 255.335 281.602C240.922 278.863 225.403 281.973 210.905 283.098C189.905 284.73 168.896 286.189 147.867 287.37C121.797 288.81 95.6411 289.923 69.5221 289.329C50.8591 288.903 25.0861 289.385 8.87408 279.185C-10.4829 267.016 38.7881 209.947 45.7201 199.778C62.5201 175.13 74.3021 151.25 78.5591 121.545C79.8121 112.89 84.0321 104.019 83.4851 95.2959C82.9131 86.3876 77.5191 78.4594 72.5391 71.4523C66.0261 62.2723 43.4282 40.4991 49.8981 29.3037C53.4741 23.1217 66.8981 22.3424 73.8521 21.0321C86.9021 18.5592 100.141 17.2306 113.271 15.2644C135.547 11.9138 157.664 1.00259 180.019 1.31183C240.132 2.12781 301.119 21.0938 360.024 31.5107C395.046 37.7235 430.305 43.3613 464.901 51.7753C475.847 54.4425 487.122 57.193 497.527 61.7163C504.788 64.8694 509.452 70.4888 516.178 74.0186C541.969 87.5753 571.627 95.8043 599.321 104.928C635.277 116.8 671.351 128.31 707.054 140.948C729.433 148.866 758.21 155.834 777.493 170.522C791.577 181.248 781.951 184.457 774.519 194.443C770.725 199.542 771.601 204.559 769.952 210.327C767.599 218.561 760.946 224.49 754.706 229.819C746.106 237.182 734.638 243.247 727.606 252.272C725.125 255.45 725.24 259.394 723.234 262.163C717.392 270.23 701.901 274.211 693.468 277.537Z" stroke="#FF8062" stroke-width="0.738542" stroke-miterlimit="10"/>
</g>
<defs>
<filter id="filter0_d_1_92" x="0.0287476" y="0.936096" width="789.042" height="340.333" filterUnits="userSpaceOnUse" color-interpolation-filters="sRGB">
<feFlood flood-opacity="0" result="BackgroundImageFix"/>
<feColorMatrix in="SourceAlpha" type="matrix" values="0 0 0 0 0 0 0 0 0 0 0 0 0 0 0 0 0 0 127 0" result="hardAlpha"/>
<feOffset dy="4"/>
<feGaussianBlur stdDeviation="2"/>
<feComposite in2="hardAlpha" operator="out"/>
<feColorMatrix type="matrix" values="0 0 0 0 0.270588 0 0 0 0 0.266667 0 0 0 0 0.862745 0 0 0 1 0"/>
<feBlend mode="normal" in2="BackgroundImageFix" result="effect1_dropShadow_1_92"/>
<feBlend mode="normal" in="SourceGraphic" in2="effect1_dropShadow_1_92" result="shape"/>
</filter>
</defs>
</svg>
