<svg width="326" height="457" viewBox="0 0 326 457" fill="none" xmlns="http://www.w3.org/2000/svg">
<g filter="url(#filter0_d_1_79)">
<path d="M-83.6415 279.77C-86.4815 248.391 -85.8416 211.286 -67.4475 184.143C-51.3265 160.367 -22.6226 154.108 -2.20856 135.379C13.7244 120.767 19.9814 96.9424 28.5504 77.618C39.0224 53.9911 53.6964 10.3555 80.1134 1.46304C104.687 -6.80264 130.386 45.998 139.283 61.7434C153.367 86.6647 165.146 113.993 182.229 137.007C196.939 156.82 216.649 167.773 237.568 179.543C264.24 194.577 304.735 212.402 318.999 241.7C329.629 263.531 295.063 295.987 283.26 311.113C270.915 326.913 261.617 345.643 248.877 360.886C228.777 384.94 196.195 404.311 169.298 419.086C143.145 433.465 109.187 449.374 79.5234 448.427C60.0234 447.808 56.3174 417.172 52.1584 402.208C46.1984 380.934 38.2755 361.867 21.2585 347.401C3.93344 332.672 -16.4876 325.731 -37.9546 319.657C-48.9736 316.561 -61.5435 314.147 -71.4016 307.893C-82.3006 301.089 -82.5465 291.833 -83.6415 279.77Z" fill="#121826"/>
<path d="M-83.6415 279.77C-86.4815 248.391 -85.8416 211.286 -67.4475 184.143C-51.3265 160.367 -22.6226 154.108 -2.20856 135.379C13.7244 120.767 19.9814 96.9424 28.5504 77.618C39.0224 53.9911 53.6964 10.3555 80.1134 1.46304C104.687 -6.80264 130.386 45.998 139.283 61.7434C153.367 86.6647 165.146 113.993 182.229 137.007C196.939 156.82 216.649 167.773 237.568 179.543C264.24 194.577 304.735 212.402 318.999 241.7C329.629 263.531 295.063 295.987 283.26 311.113C270.915 326.913 261.617 345.643 248.877 360.886C228.777 384.94 196.195 404.311 169.298 419.086C143.145 433.465 109.187 449.374 79.5234 448.427C60.0234 447.808 56.3174 417.172 52.1584 402.208C46.1984 380.934 38.2755 361.867 21.2585 347.401C3.93344 332.672 -16.4876 325.731 -37.9546 319.657C-48.9736 316.561 -61.5435 314.147 -71.4016 307.893C-82.3006 301.089 -82.5465 291.833 -83.6415 279.77Z" stroke="#F1B170" stroke-width="0.738542" stroke-miterlimit="10"/>
</g>
<defs>
<filter id="filter0_d_1_79" x="-89.27" y="0.221167" width="414.642" height="456.616" filterUnits="userSpaceOnUse" color-interpolation-filters="sRGB">
<feFlood flood-opacity="0" result="BackgroundImageFix"/>
<feColorMatrix in="SourceAlpha" type="matrix" values="0 0 0 0 0 0 0 0 0 0 0 0 0 0 0 0 0 0 127 0" result="hardAlpha"/>
<feOffset dy="4"/>
<feGaussianBlur stdDeviation="2"/>
<feComposite in2="hardAlpha" operator="out"/>
<feColorMatrix type="matrix" values="0 0 0 0 0.270588 0 0 0 0 0.266667 0 0 0 0 0.862745 0 0 0 1 0"/>
<feBlend mode="normal" in2="BackgroundImageFix" result="effect1_dropShadow_1_79"/>
<feBlend mode="normal" in="SourceGraphic" in2="effect1_dropShadow_1_79" result="shape"/>
</filter>
</defs>
</svg>
