<svg width="945" height="112" viewBox="0 0 945 112" fill="none" xmlns="http://www.w3.org/2000/svg">
<g filter="url(#filter0_d_1_91)">
<path d="M844.701 312C799.27 333.857 749.931 349.748 701.478 364.072C647.665 379.965 592.548 393.126 536.701 398.726C498.14 402.606 457.055 403.752 419.628 391.876C395.96 384.364 379.914 368.565 359.547 355.317C328.809 335.292 295.547 319.426 258.623 323.287C217.223 327.606 175.687 330.846 134.013 333.008C108.876 334.315 83.6424 335.292 58.4754 334.382C42.5634 333.813 22.0624 332.853 8.2204 325.52C-10.3016 315.699 59.2704 240.972 67.9434 230.081C89.4514 203.07 105.217 174.728 114.43 141.263C121.943 113.955 106.595 92.4881 90.7624 72.061C80.9184 59.3753 49.1124 27.4695 59.0714 10.9964C64.5334 1.91141 82.5334 2.38232 92.2004 1.91806C110.625 1.03958 129.128 1.95554 147.553 2.3573C174.759 2.97574 203.719 -1.27502 230.695 2.14728C290.478 9.72116 350.11 16.2807 410.264 21.4725C443.424 24.3314 476.784 26.9302 509.646 32.4437C521.446 34.4241 533.63 36.522 544.808 41.002C551.999 43.8792 555.92 48.7801 561.989 52.8025C590.925 71.9485 628.697 81.8003 661.289 94.071C704.614 110.383 748.169 126.441 790.341 145.71C812.522 155.847 843.503 167.493 858.766 188.18C863.378 194.431 861.412 199.432 864.313 205.439C867.651 212.37 877.792 214.441 884.34 216.367C899.202 220.754 961.413 227.388 932.74 253.124C919.061 265.383 901.632 273.247 886.211 282.879C880.628 286.369 875.184 289.881 870.529 294.587C862.748 302.489 855.077 306.994 844.701 312Z" fill="#121826"/>
<path d="M844.701 312C799.27 333.857 749.931 349.748 701.478 364.072C647.665 379.965 592.548 393.126 536.701 398.726C498.14 402.606 457.055 403.752 419.628 391.876C395.96 384.364 379.914 368.565 359.547 355.317C328.809 335.292 295.547 319.426 258.623 323.287C217.223 327.606 175.687 330.846 134.013 333.008C108.876 334.315 83.6424 335.292 58.4754 334.382C42.5634 333.813 22.0624 332.853 8.2204 325.52C-10.3016 315.699 59.2704 240.972 67.9434 230.081C89.4514 203.07 105.217 174.728 114.43 141.263C121.943 113.955 106.595 92.4881 90.7624 72.061C80.9184 59.3753 49.1124 27.4695 59.0714 10.9964C64.5334 1.91141 82.5334 2.38232 92.2004 1.91806C110.625 1.03958 129.128 1.95554 147.553 2.3573C174.759 2.97574 203.719 -1.27502 230.695 2.14728C290.478 9.72116 350.11 16.2807 410.264 21.4725C443.424 24.3314 476.784 26.9302 509.646 32.4437C521.446 34.4241 533.63 36.522 544.808 41.002C551.999 43.8792 555.92 48.7801 561.989 52.8025C590.925 71.9485 628.697 81.8003 661.289 94.071C704.614 110.383 748.169 126.441 790.341 145.71C812.522 155.847 843.503 167.493 858.766 188.18C863.378 194.431 861.412 199.432 864.313 205.439C867.651 212.37 877.792 214.441 884.34 216.367C899.202 220.754 961.413 227.388 932.74 253.124C919.061 265.383 901.632 273.247 886.211 282.879C880.628 286.369 875.184 289.881 870.529 294.587C862.748 302.489 855.077 306.994 844.701 312Z" stroke="#F1B170" stroke-width="0.738542" stroke-miterlimit="10"/>
</g>
<defs>
<filter id="filter0_d_1_91" x="0.729065" y="0.430481" width="943.838" height="409.35" filterUnits="userSpaceOnUse" color-interpolation-filters="sRGB">
<feFlood flood-opacity="0" result="BackgroundImageFix"/>
<feColorMatrix in="SourceAlpha" type="matrix" values="0 0 0 0 0 0 0 0 0 0 0 0 0 0 0 0 0 0 127 0" result="hardAlpha"/>
<feOffset dy="4"/>
<feGaussianBlur stdDeviation="2"/>
<feComposite in2="hardAlpha" operator="out"/>
<feColorMatrix type="matrix" values="0 0 0 0 0.270588 0 0 0 0 0.266667 0 0 0 0 0.862745 0 0 0 1 0"/>
<feBlend mode="normal" in2="BackgroundImageFix" result="effect1_dropShadow_1_91"/>
<feBlend mode="normal" in="SourceGraphic" in2="effect1_dropShadow_1_91" result="shape"/>
</filter>
</defs>
</svg>
