<svg width="353" height="272" viewBox="0 0 353 272" fill="none" xmlns="http://www.w3.org/2000/svg">
<g filter="url(#filter0_d_1_72)">
<path d="M13.9592 177.904C46.1072 75.6656 147.959 25.3829 246.031 7.85637C268.82 3.78812 332.703 -10.8796 345.441 20.3512C357.785 50.6318 318.528 86.5426 300.149 103.557C243.199 156.278 172.837 195.369 106.163 234.094C85.3522 246.18 47.8172 272.413 22.0022 260.312C-6.02679 247.151 7.29919 199.103 13.9592 177.904Z" fill="#121826"/>
<path d="M13.9592 177.904C46.1072 75.6656 147.959 25.3829 246.031 7.85637C268.82 3.78812 332.703 -10.8796 345.441 20.3512C357.785 50.6318 318.528 86.5426 300.149 103.557C243.199 156.278 172.837 195.369 106.163 234.094C85.3522 246.18 47.8172 272.413 22.0022 260.312C-6.02679 247.151 7.29919 199.103 13.9592 177.904Z" stroke="#5ACEF2" stroke-width="0.738542" stroke-miterlimit="10"/>
</g>
<defs>
<filter id="filter0_d_1_72" x="0.530182" y="0.485031" width="351.639" height="271.311" filterUnits="userSpaceOnUse" color-interpolation-filters="sRGB">
<feFlood flood-opacity="0" result="BackgroundImageFix"/>
<feColorMatrix in="SourceAlpha" type="matrix" values="0 0 0 0 0 0 0 0 0 0 0 0 0 0 0 0 0 0 127 0" result="hardAlpha"/>
<feOffset dy="4"/>
<feGaussianBlur stdDeviation="2"/>
<feComposite in2="hardAlpha" operator="out"/>
<feColorMatrix type="matrix" values="0 0 0 0 0.270588 0 0 0 0 0.266667 0 0 0 0 0.862745 0 0 0 1 0"/>
<feBlend mode="normal" in2="BackgroundImageFix" result="effect1_dropShadow_1_72"/>
<feBlend mode="normal" in="SourceGraphic" in2="effect1_dropShadow_1_72" result="shape"/>
</filter>
</defs>
</svg>
