<svg width="1255" height="192" viewBox="0 0 1255 192" fill="none" xmlns="http://www.w3.org/2000/svg">
<g filter="url(#filter0_d_1_89)">
<path d="M1055.14 406.058C1002.82 436.647 944.753 461.013 888.771 484.788C817.123 515.233 743.855 543.765 668.364 562.802C624.04 573.971 571.743 586.298 526.453 573.492C510.296 568.923 498.225 558.656 484.375 549.589C468.588 539.242 452.199 529.763 435.799 520.432C402.052 501.228 367.948 482.679 333.489 464.785C315.237 455.269 295.145 442.526 274.525 439.224C258.131 436.596 239.509 440.399 223.042 441.505C193.387 443.497 163.742 445.549 134.071 447.293C99.8381 449.303 65.5082 451.157 31.2021 450.836C12.0822 450.657 -20.7418 453.618 -34.2638 441.049C-46.0638 430.08 -3.10876 390.409 4.44421 382.871C28.0332 359.339 52.8442 336.931 74.7982 311.766C87.7732 296.929 103.572 278.878 109.043 259.209C113.7 242.447 104.714 223.348 99.4072 207.852C92.7712 188.444 87.4152 168.324 79.7072 149.323C72.8402 132.394 61.9072 117.317 52.3073 101.923C41.7483 84.9944 31.0562 67.7863 23.2172 49.3179C18.4171 37.9532 10.4662 18.9214 20.0112 8.08936C31.0372 -4.40045 65.0271 3.76111 78.9991 5.54224C107.342 9.20294 135.467 14.6439 163.616 19.5157C210.369 27.6005 254.942 34.6768 302.552 32.9823C364.552 30.7686 426.49 25.5643 488.478 22.6812C511.369 21.6052 534.624 19.4415 557.533 20.61C570.666 21.2843 580.667 25.3609 588.305 34.5718C598.736 47.1357 622.763 54.092 639.472 61.3009C665.526 72.5355 691.908 82.9849 718.218 93.5702C775.973 116.819 834.84 139.226 889.618 169.294C906.947 178.803 926.79 189.408 939.607 205.119C946.76 213.881 944.956 222.321 949.322 231.632C955.102 243.885 974.107 249.409 985.468 253.416C1007.39 261.157 1030.22 266.345 1052.87 271.205C1104.11 282.198 1155.48 289.426 1207.56 294.75C1219.76 295.987 1267.82 300.272 1242.58 320.921C1214.69 343.743 1174.43 354.928 1141.6 367.789C1112.01 379.353 1082.41 390.112 1055.14 406.058Z" fill="#121826"/>
<path d="M1055.14 406.058C1002.82 436.647 944.753 461.013 888.771 484.788C817.123 515.233 743.855 543.765 668.364 562.802C624.04 573.971 571.743 586.298 526.453 573.492C510.296 568.923 498.225 558.656 484.375 549.589C468.588 539.242 452.199 529.763 435.799 520.432C402.052 501.228 367.948 482.679 333.489 464.785C315.237 455.269 295.145 442.526 274.525 439.224C258.131 436.596 239.509 440.399 223.042 441.505C193.387 443.497 163.742 445.549 134.071 447.293C99.8381 449.303 65.5082 451.157 31.2021 450.836C12.0822 450.657 -20.7418 453.618 -34.2638 441.049C-46.0638 430.08 -3.10876 390.409 4.44421 382.871C28.0332 359.339 52.8442 336.931 74.7982 311.766C87.7732 296.929 103.572 278.878 109.043 259.209C113.7 242.447 104.714 223.348 99.4072 207.852C92.7712 188.444 87.4152 168.324 79.7072 149.323C72.8402 132.394 61.9072 117.317 52.3073 101.923C41.7483 84.9944 31.0562 67.7863 23.2172 49.3179C18.4171 37.9532 10.4662 18.9214 20.0112 8.08936C31.0372 -4.40045 65.0271 3.76111 78.9991 5.54224C107.342 9.20294 135.467 14.6439 163.616 19.5157C210.369 27.6005 254.942 34.6768 302.552 32.9823C364.552 30.7686 426.49 25.5643 488.478 22.6812C511.369 21.6052 534.624 19.4415 557.533 20.61C570.666 21.2843 580.667 25.3609 588.305 34.5718C598.736 47.1357 622.763 54.092 639.472 61.3009C665.526 72.5355 691.908 82.9849 718.218 93.5702C775.973 116.819 834.84 139.226 889.618 169.294C906.947 178.803 926.79 189.408 939.607 205.119C946.76 213.881 944.956 222.321 949.322 231.632C955.102 243.885 974.107 249.409 985.468 253.416C1007.39 261.157 1030.22 266.345 1052.87 271.205C1104.11 282.198 1155.48 289.426 1207.56 294.75C1219.76 295.987 1267.82 300.272 1242.58 320.921C1214.69 343.743 1174.43 354.928 1141.6 367.789C1112.01 379.353 1082.41 390.112 1055.14 406.058Z" stroke="#5BE7C3" stroke-width="0.738542" stroke-miterlimit="10"/>
</g>
<defs>
<filter id="filter0_d_1_89" x="-40.6715" y="0.908264" width="1294.85" height="586.402" filterUnits="userSpaceOnUse" color-interpolation-filters="sRGB">
<feFlood flood-opacity="0" result="BackgroundImageFix"/>
<feColorMatrix in="SourceAlpha" type="matrix" values="0 0 0 0 0 0 0 0 0 0 0 0 0 0 0 0 0 0 127 0" result="hardAlpha"/>
<feOffset dy="4"/>
<feGaussianBlur stdDeviation="2"/>
<feComposite in2="hardAlpha" operator="out"/>
<feColorMatrix type="matrix" values="0 0 0 0 0.270588 0 0 0 0 0.266667 0 0 0 0 0.862745 0 0 0 1 0"/>
<feBlend mode="normal" in2="BackgroundImageFix" result="effect1_dropShadow_1_89"/>
<feBlend mode="normal" in="SourceGraphic" in2="effect1_dropShadow_1_89" result="shape"/>
</filter>
</defs>
</svg>
