<svg width="967" height="735" viewBox="0 0 967 735" fill="none" xmlns="http://www.w3.org/2000/svg">
<g filter="url(#filter0_d_1_63)">
<path d="M132.236 301.758C103.699 266.851 69.2964 235.864 40.5535 200.389C23.7285 179.614 -5.24658 144.689 7.76642 115.399C22.0404 83.215 71.8015 82.3381 100.559 79.7468C134.792 76.6629 174.993 72.4429 204.289 52.3475C213.555 45.9947 221.448 37.5856 224.789 26.5095C228.371 14.6556 224.455 4.28363 223.945 -7.5802C222.876 -32.4731 237.485 -52.4585 256.817 -66.1827C284.14 -85.5872 318.306 -94.7613 350.577 -101.157C386.932 -108.352 424.185 -111.917 461.55 -111.777C497.143 -111.654 532.359 -112.456 567.988 -113.382C614.588 -114.617 661.833 -112.623 707.031 -100.035C751.555 -87.625 792.031 -64.3682 823.831 -30.1586C854.852 3.22345 875.781 44.0269 894.112 85.5895C904.512 109.177 922.085 144.434 946.894 156.353C957.926 161.656 968.752 161.292 957.022 175.084C942.249 192.452 922.34 206.386 905.23 221.24C880.548 242.676 855.247 264.532 834.53 290.017C821.3 306.292 815.404 322.084 816.315 343.156C817.015 359.208 820.215 375.093 818.598 391.207C814.815 429.028 785.531 454.965 759.641 479.116C742.986 494.646 727.776 506.492 719.201 528.59C709.061 554.705 704.801 583.117 698.029 610.233C690.585 640.01 681.987 670.984 665.739 697.211C651.278 720.56 633.688 731.034 607.361 724.74C566.301 714.932 525.831 690.776 489.376 668.439C452.276 645.706 415.805 620.147 385.057 588.901C368.457 572.028 357.127 552.216 342.385 534.089C323.842 511.335 281.892 519.951 256.962 521.877C215.577 525.075 85.3564 549.005 97.3724 471.498C102.387 439.147 122.139 409.29 136.583 380.742C142.57 368.894 151.234 354.677 152.588 341.1C154.064 326.312 140.815 312.266 132.236 301.758Z" fill="#121826"/>
<path d="M132.236 301.758C103.699 266.851 69.2964 235.864 40.5535 200.389C23.7285 179.614 -5.24658 144.689 7.76642 115.399C22.0404 83.215 71.8015 82.3381 100.559 79.7468C134.792 76.6629 174.993 72.4429 204.289 52.3475C213.555 45.9947 221.448 37.5856 224.789 26.5095C228.371 14.6556 224.455 4.28363 223.945 -7.5802C222.876 -32.4731 237.485 -52.4585 256.817 -66.1827C284.14 -85.5872 318.306 -94.7613 350.577 -101.157C386.932 -108.352 424.185 -111.917 461.55 -111.777C497.143 -111.654 532.359 -112.456 567.988 -113.382C614.588 -114.617 661.833 -112.623 707.031 -100.035C751.555 -87.625 792.031 -64.3682 823.831 -30.1586C854.852 3.22345 875.781 44.0269 894.112 85.5895C904.512 109.177 922.085 144.434 946.894 156.353C957.926 161.656 968.752 161.292 957.022 175.084C942.249 192.452 922.34 206.386 905.23 221.24C880.548 242.676 855.247 264.532 834.53 290.017C821.3 306.292 815.404 322.084 816.315 343.156C817.015 359.208 820.215 375.093 818.598 391.207C814.815 429.028 785.531 454.965 759.641 479.116C742.986 494.646 727.776 506.492 719.201 528.59C709.061 554.705 704.801 583.117 698.029 610.233C690.585 640.01 681.987 670.984 665.739 697.211C651.278 720.56 633.688 731.034 607.361 724.74C566.301 714.932 525.831 690.776 489.376 668.439C452.276 645.706 415.805 620.147 385.057 588.901C368.457 572.028 357.127 552.216 342.385 534.089C323.842 511.335 281.892 519.951 256.962 521.877C215.577 525.075 85.3564 549.005 97.3724 471.498C102.387 439.147 122.139 409.29 136.583 380.742C142.57 368.894 151.234 354.677 152.588 341.1C154.064 326.312 140.815 312.266 132.236 301.758Z" stroke="#FF8062" stroke-width="0.738542" stroke-miterlimit="10"/>
</g>
<defs>
<filter id="filter0_d_1_63" x="0.132568" y="-114.066" width="966.332" height="848.974" filterUnits="userSpaceOnUse" color-interpolation-filters="sRGB">
<feFlood flood-opacity="0" result="BackgroundImageFix"/>
<feColorMatrix in="SourceAlpha" type="matrix" values="0 0 0 0 0 0 0 0 0 0 0 0 0 0 0 0 0 0 127 0" result="hardAlpha"/>
<feOffset dy="4"/>
<feGaussianBlur stdDeviation="2"/>
<feComposite in2="hardAlpha" operator="out"/>
<feColorMatrix type="matrix" values="0 0 0 0 0.270588 0 0 0 0 0.266667 0 0 0 0 0.862745 0 0 0 1 0"/>
<feBlend mode="normal" in2="BackgroundImageFix" result="effect1_dropShadow_1_63"/>
<feBlend mode="normal" in="SourceGraphic" in2="effect1_dropShadow_1_63" result="shape"/>
</filter>
</defs>
</svg>
