<svg width="1368" height="217" viewBox="0 0 1368 217" fill="none" xmlns="http://www.w3.org/2000/svg">
<g filter="url(#filter0_d_1_88)">
<path d="M1095.84 437.773C1046.38 468.298 990.472 493.496 937.749 519.106C860.7 556.528 782.52 592.941 701.563 620.821C658.163 635.763 601.915 657.304 555.342 645.598C538.314 641.319 522.786 628.378 507.518 619.968C486.465 608.373 465.1 597.351 443.777 586.306C400.998 564.165 358.085 542.246 316.041 518.685C295.796 507.337 276.152 493.044 255.075 483.362C242.758 477.7 228.019 480.349 214.858 480.707C184.372 481.541 153.904 483.124 123.436 484.467C86.1687 486.109 48.8167 487.857 11.5077 487.209C-5.32031 486.912 -46.5322 489.95 -55.7922 475.206C-60.7762 467.267 -49.0293 452.952 -43.5844 446.324C-33.5844 434.148 -22.0942 423.176 -10.7552 412.317C15.4697 387.2 43.3207 363.281 66.6317 335.225C78.6088 320.806 94.3007 303.181 86.4827 283.492C78.5907 263.605 64.9198 246.384 56.5828 226.565C46.9828 203.757 42.9967 180.023 38.4626 155.838C35.1056 137.964 27.2866 122.127 19.9357 105.647C11.8137 87.433 3.39978 69.0646 -2.24023 49.8569C-5.96729 37.1687 -11.9833 14.3428 1.05969 6.30969C19.5867 -5.10907 54.3287 4.13593 75.4478 7.50159C104.635 12.1449 133.61 18.0593 162.718 23.1536C183.849 26.8585 205.054 30.9208 226.537 31.3526C261.169 32.0502 295.917 29.6365 330.458 27.3885C394.407 23.2269 457.908 17.5842 522.082 17.5842C578.306 17.5842 708.235 83.754 738.648 95.4045C799.353 118.659 861.673 140.711 919.119 171.657C934.66 180.035 958.577 191.198 966.754 208.443C971.799 219.069 969.48 225.212 981.378 232.06C997.611 241.401 1018.41 245.069 1036.38 249.249C1065.32 255.978 1094.48 261.678 1123.55 267.771C1182.35 280.064 1240.75 293.969 1299.3 307.349C1317 311.389 1338.42 312.287 1355.3 319.412C1366.18 323.987 1365.05 329.747 1356.63 336.7C1341.86 348.9 1321.16 355.673 1303.71 362.632C1278.15 372.826 1252.17 381.921 1226.17 390.887C1200.18 399.854 1174.05 408.54 1148.04 417.523C1130.86 423.436 1111.27 428.243 1095.84 437.773Z" fill="#121826"/>
<path d="M1095.84 437.773C1046.38 468.298 990.472 493.496 937.749 519.106C860.7 556.528 782.52 592.941 701.563 620.821C658.163 635.763 601.915 657.304 555.342 645.598C538.314 641.319 522.786 628.378 507.518 619.968C486.465 608.373 465.1 597.351 443.777 586.306C400.998 564.165 358.085 542.246 316.041 518.685C295.796 507.337 276.152 493.044 255.075 483.362C242.758 477.7 228.019 480.349 214.858 480.707C184.372 481.541 153.904 483.124 123.436 484.467C86.1687 486.109 48.8167 487.857 11.5077 487.209C-5.32031 486.912 -46.5322 489.95 -55.7922 475.206C-60.7762 467.267 -49.0293 452.952 -43.5844 446.324C-33.5844 434.148 -22.0942 423.176 -10.7552 412.317C15.4697 387.2 43.3207 363.281 66.6317 335.225C78.6088 320.806 94.3007 303.181 86.4827 283.492C78.5907 263.605 64.9198 246.384 56.5828 226.565C46.9828 203.757 42.9967 180.023 38.4626 155.838C35.1056 137.964 27.2866 122.127 19.9357 105.647C11.8137 87.433 3.39978 69.0646 -2.24023 49.8569C-5.96729 37.1687 -11.9833 14.3428 1.05969 6.30969C19.5867 -5.10907 54.3287 4.13593 75.4478 7.50159C104.635 12.1449 133.61 18.0593 162.718 23.1536C183.849 26.8585 205.054 30.9208 226.537 31.3526C261.169 32.0502 295.917 29.6365 330.458 27.3885C394.407 23.2269 457.908 17.5842 522.082 17.5842C578.306 17.5842 708.235 83.754 738.648 95.4045C799.353 118.659 861.673 140.711 919.119 171.657C934.66 180.035 958.577 191.198 966.754 208.443C971.799 219.069 969.48 225.212 981.378 232.06C997.611 241.401 1018.41 245.069 1036.38 249.249C1065.32 255.978 1094.48 261.678 1123.55 267.771C1182.35 280.064 1240.75 293.969 1299.3 307.349C1317 311.389 1338.42 312.287 1355.3 319.412C1366.18 323.987 1365.05 329.747 1356.63 336.7C1341.86 348.9 1321.16 355.673 1303.71 362.632C1278.15 372.826 1252.17 381.921 1226.17 390.887C1200.18 399.854 1174.05 408.54 1148.04 417.523C1130.86 423.436 1111.27 428.243 1095.84 437.773Z" stroke="#FF8062" stroke-width="0.738542" stroke-miterlimit="10"/>
</g>
<defs>
<filter id="filter0_d_1_88" x="-61.366" y="0.403687" width="1428.94" height="656.916" filterUnits="userSpaceOnUse" color-interpolation-filters="sRGB">
<feFlood flood-opacity="0" result="BackgroundImageFix"/>
<feColorMatrix in="SourceAlpha" type="matrix" values="0 0 0 0 0 0 0 0 0 0 0 0 0 0 0 0 0 0 127 0" result="hardAlpha"/>
<feOffset dy="4"/>
<feGaussianBlur stdDeviation="2"/>
<feComposite in2="hardAlpha" operator="out"/>
<feColorMatrix type="matrix" values="0 0 0 0 0.270588 0 0 0 0 0.266667 0 0 0 0 0.862745 0 0 0 1 0"/>
<feBlend mode="normal" in2="BackgroundImageFix" result="effect1_dropShadow_1_88"/>
<feBlend mode="normal" in="SourceGraphic" in2="effect1_dropShadow_1_88" result="shape"/>
</filter>
</defs>
</svg>
