<svg width="778" height="632" viewBox="0 0 778 632" fill="none" xmlns="http://www.w3.org/2000/svg">
<g filter="url(#filter0_d_1_65)">
<path d="M51.5456 307.543C29.9746 266.315 -18.3994 198.569 18.3936 152.724C37.8266 128.496 72.1936 119.391 101.033 113.966C124.233 109.577 152.221 107.93 169.753 89.3244C182.639 75.6452 176.919 55.7349 181.853 38.615C187.98 17.3869 202.045 0.0170288 219.328 -13.0387C267.628 -49.5263 334.778 -60.7234 392.877 -63.1063C453.216 -65.5751 519.702 -54.0263 576.477 -31.8105C647.277 -4.1012 700.314 48.371 737.406 114.812C744.259 127.08 750.477 139.665 757.048 152.075C761.463 160.403 768.009 168.457 771.489 177.216C777.283 191.822 770.457 203.761 759.514 213.278C743.773 226.982 724.437 236.735 706.492 247.019C681.952 261.093 656.865 274.913 634.037 291.425C618.697 302.536 602.637 314.505 597.151 333.783C593.404 346.931 592.627 360.856 592.76 374.474C593.051 403.671 591.545 427.282 578.149 454.022C556.101 497.923 522.201 537.398 486.395 570.245C458.295 596.022 413.819 636.066 372.87 618.831C336.129 603.399 314.638 566.461 290.432 536.597C278.663 522.079 265.442 508.819 249.908 498.493C230.323 485.474 211.886 480.012 188.682 477.882C149.628 474.298 90.7396 473.364 78.6666 425.706C74.2096 408.119 76.7536 389.904 74.4156 372.089C71.3606 348.537 62.4276 328.339 51.5456 307.543Z" fill="#121826"/>
<path d="M51.5456 307.543C29.9746 266.315 -18.3994 198.569 18.3936 152.724C37.8266 128.496 72.1936 119.391 101.033 113.966C124.233 109.577 152.221 107.93 169.753 89.3244C182.639 75.6452 176.919 55.7349 181.853 38.615C187.98 17.3869 202.045 0.0170288 219.328 -13.0387C267.628 -49.5263 334.778 -60.7234 392.877 -63.1063C453.216 -65.5751 519.702 -54.0263 576.477 -31.8105C647.277 -4.1012 700.314 48.371 737.406 114.812C744.259 127.08 750.477 139.665 757.048 152.075C761.463 160.403 768.009 168.457 771.489 177.216C777.283 191.822 770.457 203.761 759.514 213.278C743.773 226.982 724.437 236.735 706.492 247.019C681.952 261.093 656.865 274.913 634.037 291.425C618.697 302.536 602.637 314.505 597.151 333.783C593.404 346.931 592.627 360.856 592.76 374.474C593.051 403.671 591.545 427.282 578.149 454.022C556.101 497.923 522.201 537.398 486.395 570.245C458.295 596.022 413.819 636.066 372.87 618.831C336.129 603.399 314.638 566.461 290.432 536.597C278.663 522.079 265.442 508.819 249.908 498.493C230.323 485.474 211.886 480.012 188.682 477.882C149.628 474.298 90.7396 473.364 78.6666 425.706C74.2096 408.119 76.7536 389.904 74.4156 372.089C71.3606 348.537 62.4276 328.339 51.5456 307.543Z" stroke="#5BE7C3" stroke-width="0.738542" stroke-miterlimit="10"/>
</g>
<defs>
<filter id="filter0_d_1_65" x="0.6297" y="-63.804" width="777.34" height="695.18" filterUnits="userSpaceOnUse" color-interpolation-filters="sRGB">
<feFlood flood-opacity="0" result="BackgroundImageFix"/>
<feColorMatrix in="SourceAlpha" type="matrix" values="0 0 0 0 0 0 0 0 0 0 0 0 0 0 0 0 0 0 127 0" result="hardAlpha"/>
<feOffset dy="4"/>
<feGaussianBlur stdDeviation="2"/>
<feComposite in2="hardAlpha" operator="out"/>
<feColorMatrix type="matrix" values="0 0 0 0 0.270588 0 0 0 0 0.266667 0 0 0 0 0.862745 0 0 0 1 0"/>
<feBlend mode="normal" in2="BackgroundImageFix" result="effect1_dropShadow_1_65"/>
<feBlend mode="normal" in="SourceGraphic" in2="effect1_dropShadow_1_65" result="shape"/>
</filter>
</defs>
</svg>
