<svg width="413" height="319" viewBox="0 0 413 319" fill="none" xmlns="http://www.w3.org/2000/svg">
<g filter="url(#filter0_d_1_71)">
<path d="M13.7593 211.092C28.4113 157.03 60.0143 107.652 106.112 75.2039C157.785 38.8297 224.322 18.6185 285.478 8.3399C317.985 2.87808 388.429 -11.9205 405 30.4415C421.571 72.8035 373.67 114.55 346.1 137.532C312.64 165.381 276.566 192.271 240.533 217.259C209.227 238.985 175.822 261.198 141.913 277.975C123.07 287.383 103.123 295.164 82.3833 301.197C67.2153 305.554 47.9283 312.054 32.0263 308.81C-8.0827 300.618 6.75131 236.942 13.7593 211.092Z" fill="#121826"/>
<path d="M13.7593 211.092C28.4113 157.03 60.0143 107.652 106.112 75.2039C157.785 38.8297 224.322 18.6185 285.478 8.3399C317.985 2.87808 388.429 -11.9205 405 30.4415C421.571 72.8035 373.67 114.55 346.1 137.532C312.64 165.381 276.566 192.271 240.533 217.259C209.227 238.985 175.822 261.198 141.913 277.975C123.07 287.383 103.123 295.164 82.3833 301.197C67.2153 305.554 47.9283 312.054 32.0263 308.81C-8.0827 300.618 6.75131 236.942 13.7593 211.092Z" stroke="#FF8062" stroke-width="0.738542" stroke-miterlimit="10"/>
</g>
<defs>
<filter id="filter0_d_1_71" x="0.830811" y="0.978954" width="411.941" height="317.075" filterUnits="userSpaceOnUse" color-interpolation-filters="sRGB">
<feFlood flood-opacity="0" result="BackgroundImageFix"/>
<feColorMatrix in="SourceAlpha" type="matrix" values="0 0 0 0 0 0 0 0 0 0 0 0 0 0 0 0 0 0 127 0" result="hardAlpha"/>
<feOffset dy="4"/>
<feGaussianBlur stdDeviation="2"/>
<feComposite in2="hardAlpha" operator="out"/>
<feColorMatrix type="matrix" values="0 0 0 0 0.270588 0 0 0 0 0.266667 0 0 0 0 0.862745 0 0 0 1 0"/>
<feBlend mode="normal" in2="BackgroundImageFix" result="effect1_dropShadow_1_71"/>
<feBlend mode="normal" in="SourceGraphic" in2="effect1_dropShadow_1_71" result="shape"/>
</filter>
</defs>
</svg>
