<svg width="273" height="365" viewBox="0 0 273 365" fill="none" xmlns="http://www.w3.org/2000/svg">
<g filter="url(#filter0_d_1_80)">
<path d="M-64.183 231.685C-64.025 204.577 -57.9339 175.669 -39.8699 154.759C-24.8249 137.339 -1.27594 131.519 13.1301 113.714C24.5381 99.6168 30.3451 79.8281 37.9821 63.4543C47.3231 43.3939 60.5311 8.34991 83.7581 1.38779C106.428 -5.38928 126.479 33.2095 135.172 48.4798C147.901 70.8823 158.201 94.6209 171.046 116.954C181.108 134.477 193.413 145.77 209.801 157.062C229.034 170.327 255.868 185.021 266.143 206.967C273.55 222.856 255.62 248.246 249.11 262.244C244.746 271.645 240.751 281.195 238.557 291.386C236.848 299.321 236.678 306.665 231.726 313.479C219.253 330.62 191.916 332.856 173.367 338.505C148.733 346.007 122.596 354.524 96.8161 356.15C80.9711 357.167 72.8851 342.314 63.8411 331.862C53.1551 319.509 38.0251 310.625 24.8111 301.303C7.37207 288.981 -11.6059 281.317 -31.2399 273.465C-40.0959 269.922 -50.4969 266.448 -57.3589 259.406C-64.5219 252.109 -64.2369 241.469 -64.183 231.685Z" fill="#121826"/>
<path d="M-64.183 231.685C-64.025 204.577 -57.9339 175.669 -39.8699 154.759C-24.8249 137.339 -1.27594 131.519 13.1301 113.714C24.5381 99.6168 30.3451 79.8281 37.9821 63.4543C47.3231 43.3939 60.5311 8.34991 83.7581 1.38779C106.428 -5.38928 126.479 33.2095 135.172 48.4798C147.901 70.8823 158.201 94.6209 171.046 116.954C181.108 134.477 193.413 145.77 209.801 157.062C229.034 170.327 255.868 185.021 266.143 206.967C273.55 222.856 255.62 248.246 249.11 262.244C244.746 271.645 240.751 281.195 238.557 291.386C236.848 299.321 236.678 306.665 231.726 313.479C219.253 330.62 191.916 332.856 173.367 338.505C148.733 346.007 122.596 354.524 96.8161 356.15C80.9711 357.167 72.8851 342.314 63.8411 331.862C53.1551 319.509 38.0251 310.625 24.8111 301.303C7.37207 288.981 -11.6059 281.317 -31.2399 273.465C-40.0959 269.922 -50.4969 266.448 -57.3589 259.406C-64.5219 252.109 -64.2369 241.469 -64.183 231.685Z" stroke="#FF8062" stroke-width="0.738542" stroke-miterlimit="10"/>
</g>
<defs>
<filter id="filter0_d_1_80" x="-68.5685" y="0.227913" width="340.843" height="364.341" filterUnits="userSpaceOnUse" color-interpolation-filters="sRGB">
<feFlood flood-opacity="0" result="BackgroundImageFix"/>
<feColorMatrix in="SourceAlpha" type="matrix" values="0 0 0 0 0 0 0 0 0 0 0 0 0 0 0 0 0 0 127 0" result="hardAlpha"/>
<feOffset dy="4"/>
<feGaussianBlur stdDeviation="2"/>
<feComposite in2="hardAlpha" operator="out"/>
<feColorMatrix type="matrix" values="0 0 0 0 0.270588 0 0 0 0 0.266667 0 0 0 0 0.862745 0 0 0 1 0"/>
<feBlend mode="normal" in2="BackgroundImageFix" result="effect1_dropShadow_1_80"/>
<feBlend mode="normal" in="SourceGraphic" in2="effect1_dropShadow_1_80" result="shape"/>
</filter>
</defs>
</svg>
