<svg width="697" height="600" viewBox="0 0 697 600" fill="none" xmlns="http://www.w3.org/2000/svg">
<g filter="url(#filter0_d_1_66)">
<path d="M23.9746 309.069C8.61462 263.957 -11.5644 207.105 25.5346 167.012C43.5046 147.592 68.7816 136.731 93.2446 128.618C110.766 122.803 138.585 121.091 149.327 103.214C157.217 90.0569 158.309 71.9077 165.446 57.8118C174.836 39.3596 189.247 22.9807 207.54 9.96954C252.947 -22.5906 312.088 -35.1729 366.022 -38.7753C483.212 -46.5925 602.452 15.6673 665.162 118.1C683.862 148.636 708.001 181.135 677.779 212.33C644.789 246.361 595.091 262.304 555.716 286.485C540.671 295.717 521.5 306.816 513.107 323.532C508.058 333.579 507.707 346.186 507.481 357.248C506.874 385.42 504.574 410.758 493.438 437.045C476.238 477.67 448.814 515.15 417.738 545.85C390.631 572.624 351.978 604.081 312.616 584.785C282.436 569.954 263.294 538.475 239.844 515.272C213.744 489.429 181.474 472.014 146.032 463.505C111.555 455.254 73.7396 449.681 55.5696 414.606C49.3366 402.575 42.8246 386.995 40.4886 373.682C36.7509 351.858 31.2338 330.272 23.9756 309.074L23.9746 309.069Z" fill="#121826"/>
<path d="M23.9746 309.069C8.61462 263.957 -11.5644 207.105 25.5346 167.012C43.5046 147.592 68.7816 136.731 93.2446 128.618C110.766 122.803 138.585 121.091 149.327 103.214C157.217 90.0569 158.309 71.9077 165.446 57.8118C174.836 39.3596 189.247 22.9807 207.54 9.96954C252.947 -22.5906 312.088 -35.1729 366.022 -38.7753C483.212 -46.5925 602.452 15.6673 665.162 118.1C683.862 148.636 708.001 181.135 677.779 212.33C644.789 246.361 595.091 262.304 555.716 286.485C540.671 295.717 521.5 306.816 513.107 323.532C508.058 333.579 507.707 346.186 507.481 357.248C506.874 385.42 504.574 410.758 493.438 437.045C476.238 477.67 448.814 515.15 417.738 545.85C390.631 572.624 351.978 604.081 312.616 584.785C282.436 569.954 263.294 538.475 239.844 515.272C213.744 489.429 181.474 472.014 146.032 463.505C111.555 455.254 73.7396 449.681 55.5696 414.606C49.3366 402.575 42.8246 386.995 40.4886 373.682C36.7509 351.858 31.2338 330.272 23.9756 309.074L23.9746 309.069Z" stroke="#FF8062" stroke-width="0.738542" stroke-miterlimit="10"/>
</g>
<defs>
<filter id="filter0_d_1_66" x="0.1315" y="-39.8039" width="696.341" height="638.917" filterUnits="userSpaceOnUse" color-interpolation-filters="sRGB">
<feFlood flood-opacity="0" result="BackgroundImageFix"/>
<feColorMatrix in="SourceAlpha" type="matrix" values="0 0 0 0 0 0 0 0 0 0 0 0 0 0 0 0 0 0 127 0" result="hardAlpha"/>
<feOffset dy="4"/>
<feGaussianBlur stdDeviation="2"/>
<feComposite in2="hardAlpha" operator="out"/>
<feColorMatrix type="matrix" values="0 0 0 0 0.270588 0 0 0 0 0.266667 0 0 0 0 0.862745 0 0 0 1 0"/>
<feBlend mode="normal" in2="BackgroundImageFix" result="effect1_dropShadow_1_66"/>
<feBlend mode="normal" in="SourceGraphic" in2="effect1_dropShadow_1_66" result="shape"/>
</filter>
</defs>
</svg>
