<svg width="231" height="299" viewBox="0 0 231 299" fill="none" xmlns="http://www.w3.org/2000/svg">
<g filter="url(#filter0_d_1_81)">
<path d="M-43.7478 186.593C-40.6168 163.825 -30.8598 142.064 -14.3798 125.97C-1.74681 113.613 15.0302 106.656 25.1692 91.8092C34.6162 77.9733 41.2002 62.2329 49.0032 47.436C57.2612 31.7922 69.5302 5.6449 88.5762 1.38828C109.103 -3.19589 124.915 23.1798 133.676 37.7975C144.732 56.271 153.136 76.1505 163.026 95.2565C170.233 109.165 179.724 122.172 191.226 133.903C203.012 145.895 219 157.38 224.965 173.871C230.238 188.477 220.372 206.147 218.63 220.957C216.767 236.78 220.03 253.4 209.7 266.987C188.408 295.005 134.957 289.809 104.4 290.408C74.2502 291.026 50.0092 273.881 25.6112 257.569C9.49519 246.8 -7.2888 237.68 -23.8098 227.647C-40.6538 217.411 -46.4998 206.629 -43.7478 186.593Z" fill="#121826"/>
<path d="M-43.7478 186.593C-40.6168 163.825 -30.8598 142.064 -14.3798 125.97C-1.74681 113.613 15.0302 106.656 25.1692 91.8092C34.6162 77.9733 41.2002 62.2329 49.0032 47.436C57.2612 31.7922 69.5302 5.6449 88.5762 1.38828C109.103 -3.19589 124.915 23.1798 133.676 37.7975C144.732 56.271 153.136 76.1505 163.026 95.2565C170.233 109.165 179.724 122.172 191.226 133.903C203.012 145.895 219 157.38 224.965 173.871C230.238 188.477 220.372 206.147 218.63 220.957C216.767 236.78 220.03 253.4 209.7 266.987C188.408 295.005 134.957 289.809 104.4 290.408C74.2502 291.026 50.0092 273.881 25.6112 257.569C9.49519 246.8 -7.2888 237.68 -23.8098 227.647C-40.6538 217.411 -46.4998 206.629 -43.7478 186.593Z" stroke="#5ACEF2" stroke-width="0.738542" stroke-miterlimit="10"/>
</g>
<defs>
<filter id="filter0_d_1_81" x="-48.7682" y="0.490662" width="279.637" height="298.319" filterUnits="userSpaceOnUse" color-interpolation-filters="sRGB">
<feFlood flood-opacity="0" result="BackgroundImageFix"/>
<feColorMatrix in="SourceAlpha" type="matrix" values="0 0 0 0 0 0 0 0 0 0 0 0 0 0 0 0 0 0 127 0" result="hardAlpha"/>
<feOffset dy="4"/>
<feGaussianBlur stdDeviation="2"/>
<feComposite in2="hardAlpha" operator="out"/>
<feColorMatrix type="matrix" values="0 0 0 0 0.270588 0 0 0 0 0.266667 0 0 0 0 0.862745 0 0 0 1 0"/>
<feBlend mode="normal" in2="BackgroundImageFix" result="effect1_dropShadow_1_81"/>
<feBlend mode="normal" in="SourceGraphic" in2="effect1_dropShadow_1_81" result="shape"/>
</filter>
</defs>
</svg>
